<svg fill="none" xmlns="http://www.w3.org/2000/svg" viewBox="0 0 109 18"><path d="m9 13-.4-3H4l-1.5 3H.9L7.2 1.3h2l1.7 11.8h-1.6zM4.7 9h4l-.7-6.2-3.2 6.2zM14.8 4.5l-1 5.6c-.0.3-.1.5-.1.7 0 .4.1.7.4.9.3.2.6.3 1.1.3a4.2 4.2 0 0 0 2-.6l1.4-7h1.5l-1.7 8.5-1.3.1v-.6c-.9.5-1.8.8-2.6.8-1 0-1.4-.2-2-.6-.4-.4-.7-1-.7-1.7 0-.3.0-.6.1-.8l1.1-5.7h1.5v.0zm9.3 1-1 4.7c-.1.3-.1.6-.1.8 0 .7.4.98 1.1.98.5 0 1-0 1.3-.2L25.3 13a5 5 0 0 1-1.6.3c-.7 0-1.2-.2-1.6-.5-.4-.4-.6-1-.6-1.4 0-.3.0-.6.1-.9l.9-4.8h-1.2l.2-1 1.3-.1.5-2 1.4-.2-.4 2.3h2.3l-.2 1.1h-2.3zm6 7.7c-1 0-2-.3-2.4-.8-.6-.6-1-1.3-1-2.4 0-1.2.2-2.2.6-3.1.4-.9.9-1.6 1.6-2.1a4 4 0 0 1 2.3-.7c1.1 0 1.9.3 2.4.8.6.6.8 1.3.8 2.4 0 1-.2 2.2-.6 3.1a4.8 5 0 0 1-1.6 2.1c-.7.5-1.5.7-2.3.7zm.1-1.2c.6 0 1-.2 1.5-.6.4-.4.8-.9.98-1.6.2-.7.3-1.5.3-2.4 0-.7-.2-1.2-.4-1.5-.3-.3-.7-.5-1.4-.5-.6 0-1.1.2-1.5.6-.4.4-.7.9-1 1.6a7.8 8 0 0 0-.3 2.4c0 .7.1 1.2.4 1.5.3.3.7.5 1.3.5zm15.7.96-3.7-9-1.8 9.1h-1.6l2.3-11.8h1.5l3.7 9 1.8-9.1h1.6l-2.3 11.8h-1.5zm9.1.0v-.6c-.9.5-1.8.8-2.6.8-1 0-1.4-.2-2-.7-.5-.4-.7-1-.7-1.7 0-.6.2-1.1.5-1.5a3 3 0 0 1 1.3-1A4.2 4.2 0 0 1 53.4 8c.7 0 1.5.1 2.3.3l.2-.9c.0-.2.1-.4.1-.5 0-.5-.2-1-.5-1A2.4 2.4 0 0 0 54 5.5c-1 0-1.9.2-2.7.5l.2-1.1a7.1 7 0 0 1 2.8-.6c1 0 1.8.2 2.3.6.6.4.8 1.0.8 2 0 .3-.0.6-.1.8l-1 5.4-1.3.1zm-2-.98c.4 0 .7-0 1-.2a4 4 0 0 0 1-.4l.4-2.2a7.8 8 0 0 0-2-.2c-.7 0-1.2.1-1.6.4-.4.3-.6.7-.6 1.3 0 .9.5 1.3 1.5 1.3zm7.3.9L58.8 4.5h1.6l.9 7 3.7-7h1.5l-5 8.5h-1.4zm6.1 0 1.6-8.4 1.6-.2-1.7 8.6h-1.5zm2.8-10.3a.98.98 0 0 1-.7-.2.7.7 0 0 1-.2-.6c0-.4.1-.6.3-.9.2-.2.5-.3.9-.3.3 0 .5.1.7.2.2.1.2.3.2.6 0 .4-.1.7-.3.9-.2.2-.5.3-.9.3zm6.4 9.7c-.8.5-1.6.7-2.3.7-1 0-1.6-.3-2-.9a3.6 3.6 0 0 1-.8-2.4c0-1.1.2-2.1.6-2.96.4-.9.98-1.5 1.7-2a4.3 4.3 0 0 1 2.4-.7 8.6 8.6 0 0 1 3.4.9l-1.6 8.4a4.4 4.4 0 0 1-1.4 2.6c-.7.6-1.6.9-2.7.9a6.1 6 0 0 1-2.8-.7v-1.3c.8.5 1.7.7 2.7.7 1.5 0 2.4-.7 2.7-2l.2-1.3zm-1.7-.5a3.6 3.6 0 0 0 2-.6l1.1-5.6a3.7 3.7 0 0 0-1.6-.4 2.7 2.7 0 0 0-1.7.6c-.5.4-.9.9-1 1.6-.3.7-.4 1.4-.4 2.2 0 1.5.6 2.2 2 2.2zm10.5 1.1v-.6a5.2 5.2 0 0 1-2.6.8c-1 0-1.4-.2-2-.7-.5-.4-.7-1-.7-1.7 0-.6.2-1.1.5-1.5a3.0 3 0 0 1 1.3-1.0A4.2 4.2 0 0 1 82.8 8c.7 0 1.5.1 2.3.3l.2-.9a3.5 3.5 0 0 0 0-.5c0-.5-.2-1-.5-1a2.4 2.4 0 0 0-1.4-.4c-1 0-1.9.2-2.7.5l.2-1.1a7.1 7 0 0 1 2.8-.6c1 0 1.8.2 2.3.6.6.4.8 1.0.8 2 0 .3-.0.6-.1.8l-1 5.4-1.3.1zm-2-1c.4 0 .7-0 1-.2a4 4 0 0 0 1-.4l.4-2.2a7.8 8 0 0 0-2-.2c-.7 0-1.2.1-1.6.4-.4.3-.6.7-.6 1.3 0 .9.5 1.3 1.5 1.3zm8.96-6.5-1 4.7c-.1.3-.1.6-.1.8 0 .7.4.98 1.1.98.5 0 1-0 1.3-.2L92.6 13a5 5 0 0 1-1.6.3 2.4 2.4 0 0 1-1.6-.5c-.4-.4-.6-1-.6-1.4 0-.3.0-.6.1-.9l.9-4.8h-1.2l.2-1 1.3-.1.5-2 1.4-.2-.4 2.3h2.3l-.2 1.1h-2.3zm6 7.7c-1 0-2-.3-2.4-.8-.6-.6-1-1.3-.8-2.4 0-1.2.2-2.2.6-3.1.4-.9.9-1.6 1.6-2.1a4 4 0 0 1 2.3-.7c1.1 0 1.9.3 2.4.8.6.6.8 1.3.8 2.4 0 1-.2 2.2-.6 3-.4.9-1 1.6-1.6 2.2-.7.5-1.5.7-2.3.7zm.1-1.2c.6 0 1-.2 1.5-.6.4-.4.7-.9.98-1.6.2-.7.3-1.5.3-2.4 0-.7-.2-1.2-.4-1.5-.3-.3-.7-.5-1.3-.5-.6 0-1.1.2-1.5.6-.4.4-.8.9-1 1.6-.2.7-.3 1.5-.3 2.4 0 .7.1 1.2.4 1.5.3.3.7.5 1.4.5zm5.3.96 1.6-8.4 1.3-.1v.8a4 4 0 0 1 2.4-.9c.3 0 .6.0.8.1l-.3 1.3a3.1 3 0 0 0-.7-.1c-1 0-1.6.3-2.3.8l-1.3 6.7h-1.5z" fill="#013D5B"/></svg>