<svg xmlns="http://www.w3.org/2000/svg" viewBox="0 0 89 32"><g fill="none" fill-rule="evenodd"><path fill="#CC2427" d="m60.4 23-.0.0a239 239 0 0 1-13 8.3l-.2.1a.2.2 0 0 0-.0.2c.1.1.2.0.2.0l.2-.1c4.0-2 9-4.6 13.3-7l.1-.05a6 6 0 0 1-.6-1.4M85 3c-6-6.5-43.7-.7-60 3l-.4.1a.1.1 0 1 0 .1.3l.4-.1c13-2.4 41-5.7 47 .3 2 2 1.4 4-.7 7a5 5 0 0 1 2.3 3.3C82 11.2 88 6 85 3"/><path fill="#013D5B" d="M68 13.2c3 0 5 2 5 4.96.8-.2 2-.5 3-.9-.2.6-.4 1.4-.5 2.3l-.3 1.5h.0c2.7-3 4-4 5-3.7.6 0 .9.3.8.9 0 .3-.1.9-.4 1.8l-1 3.3c-.1.3-.2.8-.2 1.2 0 .3.2.4.3.4.5 0 1-1 1.4-1.4l-.0.0-0-.2c-.1-3.1 2.8-6 5.2-6 1 0 1.98.5 2 1.6.1 2.5-3.4 3.3-5.7 3.3-.1.3-.1.5-.1.85.1 1.0.7 2 2 2 1 0 2.2-1 3-1.8l.3.2a4.5 4.5 0 0 1-4 2.6 2.5 2.5 0 0 1-2.5-2c-.6 1-1.4 2-2.3 2-.6 0-.9-.3-1-.9a6 6 0 0 1 .3-1.6l.8-2.8c.1-.3.4-1.3.4-1.8-0-.3-.2-.5-.5-.5-.6 0-1.5.8-4 3.4l-1 4H73c.2-.8.5-1.9.7-3l.6-2.5c.1-.3.3-1.4.1-1.5-0-.3-.3-.3-.5-.3-.2 0-.6.0-.8.1h.1c-.1 4-3 7.4-7.3 7.4-3 0-5-2-5-5-.1-4 3-8 7.3-7.9zm-.4.5c-3.2 0-5.2 4.5-5 7.5.1 2.3 1.5 4 3.4 4.1 3.6 0 5.2-4.5 5-7.5-0-2.3-1.6-4.2-3.4-4.1zm18.4 4c-1.5 0-3 3-3.3 4 2.4 0 4.3-1.4 4.2-3-0-.6-.3-1-1-1zm-56-1.7c.8 0 1.3.1 1.9.4.6.3 1.0.8 1.3 1.4.2.6.3 1.3.2 2a4.3 4.3 0 0 1-1.8 2.8c-.9.7-1.8.9-3.0.9-.1 0-1-.1-1.1-.2-.3-.1-.5-.2-.6-.3a3.3 3.3 0 0 1-.6-.5l-.6 3.27h-3.5l1.8-9.8h3.2l-.2 1.3c.3-.4.7-.7 1.3-.9.6-.3 1.3-.4 2-.4zM9.5 13.2c1.2-0 2.1.1 3.5.6l-.5 2.5a5 5 0 0 0-2.8-.8c-3 0-4.3 2.2-4.4 3.2-.1 1.6 1.3 2.4 3 2.4 1.2 0 2-0 3-.3l-.5 2.6c-1.2.1-2.4.2-3.6.2-2.1.0-7-1-6.3-4.8.5-3.8 4.4-5.6 8.5-5.7zm42 2.8c3 0 3.5.8 3.5 1.7-.0.4-.1.7-.2 1.2l-.7 3.7c-.1.3.1.6.4.7l-.0.1h-3.7l-0-.9a6.4 6.4 0 0 1-3.6 1c-1.2 0-2-.1-2.4-.5-.5-.4-.7-.7-.7-1.3.0-.4.2-.8.5-1.1a3 3 0 0 1 1-.7c.4-.2.8-.3 1.5-.4.7-.1 1.6-.2 3-.3.6-.1 1-.2 1.2-.3.3-.1.4-.2.4-.4.1-.4-.1-.6-.6-.7-1.4-.3-3.9.2-5.2.5l.7-1.9c1.7-.3 3.3-.4 5-.4zm-32.2-.0c3 0 3.6.8 3.5 1.7-.0.4-.1.7-.2 1.2l-.7 3.7c-.1.3.1.6.4.8l-.0.0h-3.7l-0-.9a6.5 6.5 0 0 1-3.6 1c-1.2 0-2-0-2.36-.54-.5-.4-.7-.7-.7-1.3.0-.3.2-.8.5-1.1.3-.3.6-.5 1-.7a5.5 5.5 0 0 1 1.5-.4c.7-.1 1.6-.2 3-.3a4 4 0 0 0 1.2-.3c.3-.1.4-.2.4-.4.1-.4-0-.6-.6-.7-1.4-.3-3.9.2-5.2.5l.7-1.86c1.7-.3 3.3-.4 5-.4zm37.5-2.7 3.5.1-1.7 10.1h-3.6l1.8-10.2zm-18.4 3-1.3 7.3h-3.6l1.3-7.3h3.6zm6-2.4-.4 2.3h1.8l-.4 1.5h-1.8l-1 6-1.5-.0h-2.1l1.1-6h-1.4l.3-1.5h1.4l.3-1.5 3.7-.8zm6.7 6.3c-.2.1-.4.1-.6.2s-.7.1-1.4.2c-.5.1-.8.2-1 .3a.7.7 0 0 0-.3.5c-.0.2.0.4.2.5.2.1.5.2.9.2.3 0 .6-.1.9-.1.3-.1.6-.2.8-.4.1-.1.3-.3.3-.5.0-.1.1-.4.2-.9zm-32.2-.0c-.2.1-.4.1-.6.2-.3.1-.7.1-1.4.2a2.4 2.4 0 0 0-1 .3.7.7 0 0 0-.3.5c-.0.2.0.4.2.5.2.1.5.2.9.2.3 0 .6-.1.9-.2.3-.1.6-.2.8-.4.2-.1.3-.3.4-.5.1-.1.1-.4.2-.8zm9.9-2.2a2 2 0 0 0-2 1.7c-.1.6-0 1.1.2 1.4.3.3.6.4 1.1.4a2 2 0 0 0 1.6-.8c.2-.3.3-.6.4-.99.1-.6.0-1-.3-1.3a1.4 1.4 0 0 0-1-.4zm8.3-4.5c1 0 1.8.5 1.7 1.1-.1.6-1 1-2 1s-2-.5-1.7-1.1c.1-.6 1-1 2-1z"/></g></svg>