<svg fill="none" xmlns="http://www.w3.org/2000/svg" viewBox="0 0 430 440"><g clip-path="url(#a)"><g opacity=".6"><path opacity=".49" d="M101.7 45.71c6.16-1.43 13.26-3.12 19.46-.97 2.65.93 4.82 2.67 6.03 5.22.66 1.39 1.08 2.9 1.88 4.22 1.3 2.14 3.34 2.39 5.64 1.76 4.24-1.18 8.43-2.53 12.69-3.66a150.8 150.8 0 0 1 12.97-2.86 101 101 0 0 1 4.46-.66c2.89-1.29 5.95-2.22 8.49-4.14 2.5-1.9 4.73-5.07 4-8.37-.8-3.66-4.76-5.46-7.87-6.8a60.7 60.7 0 0 0-12.95-3.93c-9.1-1.74-18.44-1.83-27.66-1.52-4.09.13-8.17.4-12.25.74A215.6 215.6 0 0 0 67.6 59.48c3.8-2.27 7.73-4.34 11.76-6.18 7.17-3.25 14.66-5.8 22.33-7.59Z" fill="#C0E7F3"/><path opacity=".49" d="M57.85 83.53a155.95 155.95 0 0 1 48.06-13.03c8.55-.88 17.15-.97 25.74-.92 17.04.1 34.4.75 51.01-3.66 3.95-1.05 12.88-4.98 8.88-10.5-1.9-2.64-5.87-4.14-8.82-5.17a32.81 32.81 0 0 0-19.57-.68c.54-.29 1.1-.56 1.67-.8-1.49.18-2.97.4-4.46.65-4.37.74-8.7 1.73-12.97 2.86-4.27 1.12-8.46 2.48-12.7 3.66-2.28.63-4.33.38-5.63-1.76-.8-1.32-1.23-2.83-1.88-4.22a10.14 10.14 0 0 0-6.03-5.21c-6.2-2.16-13.3-.47-19.46.96a120.58 120.58 0 0 0-22.33 7.6 121.05 121.05 0 0 0-11.76 6.17 216.27 216.27 0 0 0-29.68 34.61c3.21-1.36 6.17-3.52 9.21-5.2 3.5-1.92 7.08-3.72 10.72-5.36Z" fill="#C0E7F3"/><path opacity=".49" d="M57.85 83.53a155.95 155.95 0 0 1 48.06-13.03c8.55-.88 17.15-.97 25.74-.92 17.04.1 34.4.75 51.01-3.66 3.95-1.05 12.88-4.98 8.88-10.5-1.9-2.64-5.87-4.14-8.82-5.17a32.81 32.81 0 0 0-19.57-.68c.54-.29 1.1-.56 1.67-.8-1.49.18-2.97.4-4.46.65-4.37.74-8.7 1.73-12.97 2.86-4.27 1.12-8.46 2.48-12.7 3.66-2.28.63-4.33.38-5.63-1.76-.8-1.32-1.23-2.83-1.88-4.22a10.14 10.14 0 0 0-6.03-5.21c-6.2-2.16-13.3-.47-19.46.96a120.58 120.58 0 0 0-22.33 7.6 121.05 121.05 0 0 0-11.76 6.17 216.27 216.27 0 0 0-29.68 34.61c3.21-1.36 6.17-3.52 9.21-5.2 3.5-1.92 7.08-3.72 10.72-5.36Zm316.55-8.65a10.15 10.15 0 0 0 4.9 2.48 217.33 217.33 0 0 0-10.98-12.07 30.1 30.1 0 0 1 1.57 2.64c1.3 2.41 2.5 5.02 4.5 6.95ZM314.62 29.7c-.77.07-1.54.12-2.3.2-4.7.5-9.68.97-14.07 2.84-3.88 1.65-7.18 4.7-7.36 9.14-.13 2.95 1.12 6.15 3.84 7.36a61.33 61.33 0 0 0-30.85 7.66c-3.86 2.15-8.91 5.18-9.73 9.96-.27 1.55.03 2.9.7 4.05 6.89-6.78 17-10.3 26.58-9 1.22.17 2.42.42 3.6.74 1.64.45 3.23 1.22 4.92 1.4 3.58.36 7.03-1.97 10.2-3.3a92.6 92.6 0 0 1 40.8-7.04c5.88.33 11.86 1.1 17.31 3.43 1.28.55 2.53 1.2 3.7 1.93a216.3 216.3 0 0 0-37.94-28.47 57.9 57.9 0 0 1-5.54-.31c-1.3-.14-2.59-.34-3.87-.6v.01Z" fill="#C0E7F3"/><path opacity=".49" d="M340.97 53.73a92.64 92.64 0 0 0-40.8 7.04c-3.18 1.33-6.63 3.66-10.2 3.3-1.7-.18-3.3-.95-4.92-1.4a28.3 28.3 0 0 0-3.62-.73c-9.58-1.32-19.7 2.2-26.58 9 1.1 1.89 3.2 3.2 5.42 3.92 1.97.62 4.03.86 6.08 1 3.24.2 6.48.28 9.72.3 6.33.02 12.67-.27 18.99-.67 12.65-.8 25.29-2.03 37.98-2.08 3.15 0 6.31.05 9.47.22 3.1.16 6.25.29 9.3.84 3 .54 5.43 1.84 7.11 4.45 1.34 2.1 2.26 4.4 3.75 6.4 5.29 7 14.27 9.72 22.68 10.38 2.63.2 5.26.19 7.89.05a218.08 218.08 0 0 0-13.9-18.37 10.1 10.1 0 0 1-4.9-2.48c-2.01-1.93-3.21-4.53-4.51-6.96a32.34 32.34 0 0 0-1.57-2.63 210.65 210.65 0 0 0-6.35-6.2 27.5 27.5 0 0 0-3.7-1.93c-5.45-2.32-11.43-3.1-17.3-3.43l-.04-.02Z" fill="#C0E7F3"/><path opacity=".49" d="M340.97 53.73a92.64 92.64 0 0 0-40.8 7.04c-3.18 1.33-6.63 3.66-10.2 3.3-1.7-.18-3.3-.95-4.92-1.4a28.3 28.3 0 0 0-3.62-.73c-9.58-1.32-19.7 2.2-26.58 9 1.1 1.89 3.2 3.2 5.42 3.92 1.97.62 4.03.86 6.08 1 3.24.2 6.48.28 9.72.3 6.33.02 12.67-.27 18.99-.67 12.65-.8 25.29-2.03 37.98-2.08 3.15 0 6.31.05 9.47.22 3.1.16 6.25.29 9.3.84 3 .54 5.43 1.84 7.11 4.45 1.34 2.1 2.26 4.4 3.75 6.4 5.29 7 14.27 9.72 22.68 10.38 2.63.2 5.26.19 7.89.05a218.08 218.08 0 0 0-13.9-18.37 10.1 10.1 0 0 1-4.9-2.48c-2.01-1.93-3.21-4.53-4.51-6.96a32.34 32.34 0 0 0-1.57-2.63 210.65 210.65 0 0 0-6.35-6.2 27.5 27.5 0 0 0-3.7-1.93c-5.45-2.32-11.43-3.1-17.3-3.43l-.04-.02Z" fill="#C0E7F3"/><path d="M161.14 248.43c7.25-4.34 13.7-9.56 19.69-15.5l-9.4.11c-1.55.02-3.3.26-4.83.02a2 2 0 0 1-1.3-.74c-.16-.1-.27-.25-.37-.4a81.9 81.9 0 0 0-3.79 3.13v13.38Zm37.2-24.55a7.34 7.34 0 0 1 6.12.25c2.04 1.06 3.69 3.37 2.5 5.65-1.07 2.1-3.45 2.76-5.62 2.9-2.06.14-4.13.15-6.2.14h-3.73l-6.4.07a123.8 123.8 0 0 1-12.14 12.06 124.46 124.46 0 0 1-11.72 9.38v12.94h34.17c.57 0 1.01.48.97 1.04l-.06 1.22h40.6v-.32h10.89l-.05-.94c-1.08-2.78-2.02-5.88-2.1-8.87a4.5 4.5 0 0 1 .99-3.2c.75-.83 1.56-.9 2.61-.9.84 0 1.32-.37 1.2-1.3-.03-.3-.09-.63-.13-.95l-.15-1.35c-.1-1.2-.14-2.4-.09-3.58.1-2.06.47-4.11 1.21-6.04-.27.03-.54.08-.8.1-2.8.3-5.99.22-7.42-2.68-1.02-2.06-.85-4.55-.96-6.8-.96-18.71-25.04-19.22-39.86-16.95.02.58-.02 1.17-.15 1.76-.52 2.44-2.03 4.53-3.67 6.38l-.01-.01Z" fill="#fff"/><path d="M337.66 304.62c-3.52 2.84-8.06 4.65-12.5 6.06-21.44 6.78-44 9.12-66.39 9.77-13.97.41-27.94.25-41.92.04v9.7l.06 5.03H59.77c-4.67 4.48-9.4 9.05-14.16 13.63a216.48 216.48 0 0 0 45.51 43.39H338.9a216.52 216.52 0 0 0 46.54-44.75 1110.68 1110.68 0 0 1-23.95-21.87c-7.7-6.7-15.81-13.91-23.82-21Z" fill="#EBEBEB" style="mix-blend-mode:multiply" opacity=".57"/><path d="M213.15 320.43c-7.69-.12-15.37-.25-23.05-.3-22.68-.16-45.78-.63-67.72-7-8.34-2.44-18.58-6.3-23.43-14.08l-1.25.36a2390.64 2390.64 0 0 0-32.83 30.92l148.28-.13v-9.77Z" fill="#EBEBEB" style="mix-blend-mode:multiply" opacity=".57"/><path d="m325.1 295.78-1.23-.3-35.08-8.9-1.24-.31-33.53-8.5-1.24-.32-14.8-3.75a1.49 1.49 0 0 1-1.12-1.41l-.05-2.76h-40.6l-.05.77a.97.97 0 0 1-.7.89l-37.97 11-1.23.36-35.19 10.13-1.23.36-20.9 6.02c4.84 7.77 15.09 11.64 23.42 14.07 21.94 6.4 45.05 6.85 67.72 7 7.68.06 15.36.2 23.05.31v-44.22h3.7v44.28c13.99.21 27.96.36 41.93-.04 22.4-.65 44.95-3 66.4-9.77 4.43-1.4 8.97-3.22 12.5-6.06l-8.99-7.94-3.57-.9Z" fill="#fff"/><path d="m325.1 295.78-1.23-.3-35.08-8.9-1.24-.31-33.53-8.5-1.24-.32-14.8-3.75a1.49 1.49 0 0 1-1.12-1.41l-.05-2.76h-40.6l-.05.77a.97.97 0 0 1-.7.89l-37.97 11-1.23.36-35.19 10.13-1.23.36-20.9 6.02c4.84 7.77 15.09 11.64 23.42 14.07 21.94 6.4 45.05 6.85 67.72 7 7.68.06 15.36.2 23.05.31v-44.22h3.7v44.28c13.99.21 27.96.36 41.93-.04 22.4-.65 44.95-3 66.4-9.77 4.43-1.4 8.97-3.22 12.5-6.06l-8.99-7.94-3.57-.9Z" fill="#EBEBEB" style="mix-blend-mode:multiply" opacity=".57"/><path d="m250.09 251.7.15 1.34.14.96c.1.92-.37 1.28-1.21 1.28-1.05 0-1.86.09-2.61.91a4.47 4.47 0 0 0-1 3.2c.08 2.99 1.02 6.09 2.11 8.87l.05.94h9.75v-25.82l-.03-.03-.02-1.66-.03-6.16c-2.62.66-4.9 3.52-5.94 5.94-.09.2-.15.4-.23.6a19.13 19.13 0 0 0-1.2 6.04c-.06 1.19-.02 2.39.08 3.58h-.01Z" fill="#9AC497"/><path d="M213.15 335.15v-4.94l-148.28.13-5.1 4.9h157.15l-.06-5.04v4.95h-3.7Z" fill="#D7D7D7"/><path d="M172.86 244.96c4.3-3.76 8.4-7.74 12.13-12.06l-4.16.05a103.68 103.68 0 0 1-19.69 15.49v5.9c4.13-2.83 7.99-6.12 11.72-9.38Zm-11.57-29.71-.02 4.98 4.18-5.64c3.51-4.72 7-9.43 10.15-14.77l-3.24.1a145.9 145.9 0 0 1-11.07 15.33Z" fill="#BF8471"/><path d="M158.09 184.34c3.56-4.43 10.71-7.78 16.24-5.76a8.37 8.37 0 0 1 5.24 5.97c.72 2.88.1 5.81-1 8.5 3.95-1.98 9.18.55 8.84 5.44-.01.32-.06.63-.13.92 2.67-.22 5.55-.87 7.1-3.12 1.45-2.11 1.5-5.77-1.08-6.98a4.85 4.85 0 0 0 .67-6.35 4.82 4.82 0 0 0-5.7-1.32c1.92-2.18 3.65-4.65 3.44-7.69a9.81 9.81 0 0 0-4.62-7.36c-5.48-3.47-13.03-2.33-18.56.4a24.43 24.43 0 0 0-7.9 6.25c.1-3.2-2.32-6.34-5.54-6.82a6.58 6.58 0 0 0-5.87 2.3l5.8 12.2c1.48.5 2.43 1.72 3.06 3.41v.01Zm25.58 36.93c3.8-.84 7.89 1.4 10.2 4.4a7.4 7.4 0 0 1 1.25 7.16c2.08 0 4.16 0 6.2-.14 2.18-.15 4.56-.81 5.64-2.9 1.18-2.28-.48-4.6-2.51-5.65a7.33 7.33 0 0 0-6.12-.25c1.64-1.84 3.16-3.94 3.67-6.38a7.3 7.3 0 0 0-1.92-6.63c-3.87-4.03-10.02-3.1-14.13.02-.61.47-1.18.97-1.72 1.5.17.25.32.52.43.8 1.02 2.65.43 5.68-.99 8.08Z" fill="#BAD4B4"/><path d="M178.57 193.05c1.1-2.69 1.72-5.63 1-8.5a8.37 8.37 0 0 0-5.23-5.97c-5.53-2.02-12.68 1.34-16.25 5.76-.63-1.69-1.58-2.93-3.06-3.4l8.5 17.91-2.18-.02v1.41l9.46-.29 1.56-.04 3.24-.1c3.22-.1 6.45-.18 9.67-.3.64-.02 1.33-.05 2.02-.1.08-.3.13-.6.14-.93.34-4.9-4.9-7.42-8.85-5.44l-.02.01Zm-11.96 40.01c1.53.25 3.28 0 4.83-.02l9.4-.1 4.16-.05 6.4-.07h3.73a7.48 7.48 0 0 0-1.26-7.17c-2.3-3-6.39-5.23-10.19-4.39 1.41-2.39 2.02-5.42.99-8.07a3.7 3.7 0 0 0-.43-.81 26 26 0 0 0-3.94 5.25c-.04-2.15-2.47-3.83-4.66-3.23-3.58.97-4.37 4.85-4.36 8.12a4.56 4.56 0 0 0-6.03 2c-.81 1.52-1 3.59-.8 5.42a8.03 8.03 0 0 0 .23 1.33c.06.23.14.45.26.64.1.16.2.31.36.41.33.39.74.65 1.31.74Z" fill="#9AC497"/><path d="M288.9 174.85h5.3c.34-2.12.56-4.26.64-6.4l-3.95.1c-.23 1.81-.57 3.6-1.02 5.4a61.02 61.02 0 0 1-4.13-5.27l-3.54.06a69.06 69.06 0 0 0 4.36 6.11h2.34Zm-40.19-15.05c.25 0 .36-.02 0-.12v.12Z" fill="#BF8471"/><path d="m288.67 168.62 2.22-.05 3.95-.11c2.07-.07 4.13-.16 6.2-.3 2.75-.2 5.81-.66 7.88-2.68a6.44 6.44 0 0 0 .54-8.38 6.42 6.42 0 0 0-7.15-1.94c1.39-1.72 2.47-3.78 2.4-6.03-.06-2.03-1.14-4.14-3.06-5-1.21-.54-2.59-.47-3.89-.35-1.32.13-2.66.36-3.9.9a6.53 6.53 0 0 0-3.1 2.66c.28-2.83.3-5.71-.83-8.35-1.1-2.6-3.21-4.67-6.06-5.08-6.9-1.03-11.73 6.16-13.71 11.78-1.1 3.1-1.55 6.4-1.4 9.68-2.78-1.06-5.96.1-8.03 2.1-1.99 1.92-3.72 4.99-3.81 7.8-.04 1.08.2 2.26 1.07 2.97 1.18.95 3.07.63 4.46.64a698.83 698.83 0 0 0 23.3-.2c.97-.02 1.94-.02 2.91-.05h.01Z" fill="#9AC497"/><path d="M330.45 145.81c2.35-3.28 6.26-5.28 10.23-4.71-4.67-8.4 2.49-18.52 12.03-16.88-.34-7.94 4.48-14.32 11.13-17.57a16.12 16.12 0 0 0-6.96-7.43c-8.1-4.41-17.74.48-21.65 8.19-2.35 4.63-2.9 9.92-2.33 15.04-2.79-3.86-8.42-5.05-12.66-2.92-5.36 2.71-7.6 9.26-6.35 14.9.58 2.66 1.83 5.1 3.47 7.23a6 6 0 0 0-3.91.5 6.76 6.76 0 0 0-2.31 10.12c2.98 4.03 8.26 4.46 12.87 4.56 1.44.02 2.88.05 4.32.05-.59-3.85-.19-7.84 2.13-11.09v.01Z" fill="#BAD4B4"/><path d="m349.99 138.4 11.74-3.09 1.9-.55 19.14-5.51 1.9-.55 1.44-.41a15.31 15.31 0 0 0-11.2-8.7c-3.09-.56-7.58-.13-9.8 2.4 1.13-5.13.89-10.7-1.28-15.32-6.64 3.24-11.48 9.62-11.13 17.57-9.54-1.64-16.7 8.48-12.03 16.88-3.97-.57-7.88 1.42-10.22 4.71-2.32 3.26-2.73 7.24-2.13 11.09 2.63.02 5.25 0 7.88-.07l13.8-18.43v-.02Z" fill="#9AC497"/><path d="m156.9 276.37 32.87-9.08h4.48l-36.75 10.15v4.75l37.98-11c.4-.12.68-.48.7-.89l.04-.77.06-1.22a.98.98 0 0 0-.97-1.04h-34.17v1.37l-17.84 3.89v.5h2.58l-1.35.29-.13.03-5.11 1.07 5.1-1.07.14-.03 1.35-.29v2l-12.44 2.63v.03h-.38l-1.98-.03h-.2l-8.4-.08a188.54 188.54 0 0 1-3.18 3.26c-2.25 1.5-6.03 4.6-10.91 8.9l48.18-13.3a.7.7 0 0 1 .3-.09h.02v.02Z" fill="#AFB0AF"/><path d="M156.26 282.55v-4.77l-35.17 9.72v5.18l35.17-10.13Zm-36.4 10.48v-5.2l-13.5 3.73a652.86 652.86 0 0 0-8.66 7.85l1.25-.36 20.9-6.02Z" fill="#AFB0AF"/><path d="M35.81 335.23c3.1 4.67 6.36 9.22 9.8 13.63 4.75-4.59 9.5-9.15 14.16-13.63H35.8Z" fill="#EBEBEB" style="mix-blend-mode:multiply" opacity=".57"/><path d="M35.81 335.23c3.1 4.67 6.36 9.22 9.8 13.63 4.75-4.59 9.5-9.15 14.16-13.63H35.8Z" fill="#D7D7D7" style="mix-blend-mode:multiply" opacity=".57"/><path d="m97.7 299.41-12.6 3.63-1.24.35-37.92 10.92-1.24.36-18.16 5.22a202 202 0 0 0 6.15 10.47l32.2-.03a2287.35 2287.35 0 0 1 32.82-30.92h-.01Z" fill="#EBEBEB" style="mix-blend-mode:multiply" opacity=".57"/><path d="m97.7 299.41-12.6 3.63-1.24.35-37.92 10.92-1.24.36-18.16 5.22a202 202 0 0 0 6.15 10.47l32.2-.03a2287.35 2287.35 0 0 1 32.82-30.92h-.01Z" fill="#D7D7D7" style="mix-blend-mode:multiply" opacity=".57"/><path d="m64.87 330.33-32.19.03c1.02 1.64 2.07 3.26 3.14 4.87h23.96l5.1-4.9Z" fill="#D7D7D7"/><path d="m64.87 330.33-32.19.03c1.02 1.64 2.07 3.26 3.14 4.87h23.96l5.1-4.9Z" fill="#D7D7D7" style="mix-blend-mode:multiply" opacity=".57"/><path d="m44.7 308.6-21.08 5.8c.95 1.85 1.91 3.68 2.91 5.5l18.16-5.23v-6.09.01Z" fill="#AFB0AF"/><path d="m44.7 308.6-21.08 5.8c.95 1.85 1.91 3.68 2.91 5.5l18.16-5.23v-6.09.01Z" fill="#D7D7D7" style="mix-blend-mode:multiply" opacity=".57"/><path d="M45.93 308.25v6.06l37.92-10.92v-5.62l-37.92 10.48Z" fill="#AFB0AF"/><path d="M45.93 308.25v6.06l37.92-10.92v-5.62l-37.92 10.48Z" fill="#D7D7D7" style="mix-blend-mode:multiply" opacity=".57"/><path d="M108.4 289.76c4.88-4.3 8.66-7.4 10.9-8.9.08-.04 1.48-1.48 3.2-3.26l-2.05-.02v-.03l-2.45.54-.36.08-.43.09-8.08 1.83v.08l-18.44 3.98v.54h3.46v2.66l-16.57 3.5h-.02v.03l-3.33-.04h-.1l-13.9-.14-2.37.5-.88.2-.2.04.05.07.12.18c.59.88-.82 1.7-1.41.85v-.02l-.5-.7-5.52 1.18v-.02.03l-3.43.1v.66l-29.25 6.1c1.92 4.56 4.01 9.04 6.23 13.43l85.33-23.56v.02Z" fill="#AFB0AF"/><path d="M108.4 289.76c4.88-4.3 8.66-7.4 10.9-8.9.08-.04 1.48-1.48 3.2-3.26l-2.05-.02v-.03l-2.45.54-.36.08-.43.09-8.08 1.83v.08l-18.44 3.98v.54h3.46v2.66l-16.57 3.5h-.02v.03l-3.33-.04h-.1l-13.9-.14-2.37.5-.88.2-.2.04.05.07.12.18c.59.88-.82 1.7-1.41.85v-.02l-.5-.7-5.52 1.18v-.02.03l-3.43.1v.66l-29.25 6.1c1.92 4.56 4.01 9.04 6.23 13.43l85.33-23.56v.02Z" fill="#D7D7D7" style="mix-blend-mode:multiply" opacity=".57"/><path d="m106.36 291.56-21.27 5.87v5.6l12.6-3.63c3.14-2.87 6.04-5.5 8.67-7.85v.01Z" fill="#AFB0AF"/><path d="m106.36 291.56-21.27 5.87v5.6l12.6-3.63c3.14-2.87 6.04-5.5 8.67-7.85v.01Z" fill="#D7D7D7" style="mix-blend-mode:multiply" opacity=".57"/><path d="M323.87 295.48v-3l-3.33-2.9-31.75-7.67v4.67l35.08 8.9Zm-20.65-15.73h-4.2l-7.12-1.62-.33-.08-.3-.06-7.34-1.62-1.18-.26-.4-.09-24.9-5.43v-1.4h-16.12l11.73 2.85c.1-.07.2-.12.34-.12a.6.6 0 0 1 .52.32l64.62 15.63a624.08 624.08 0 0 0-6.86-5.82l-8.47-1.82v-.5l.01.02Zm-65.23-6.05 14.8 3.76v-4.25l-15.94-3.85 4.48-.15h-4.52v.32l.05 2.76c.01.67.48 1.25 1.13 1.41Zm87.11 19.85v2.22l3.58.92-3.57-3.14Zm-37.54-7.28v-4.65l-33.54-8.12v4.26l33.53 8.5Z" fill="#AFB0AF"/><path d="m275.05 174.86-19.46 41.02 1.7-.02 18.76-39.15-1-1.85Z" fill="#255F82"/><path d="m257.45 270.6 24.91 5.44.4.08 1.18.26 7.35 1.62.29.06.33.08 7.13 1.62-.07-64.23h-1.88l-12.15-22.41a238.1 238.1 0 0 1-3.28 13.7v.93h.81v1.84l-1.53-.02c-.58 2.26-1.18 4.53-1.75 6.8l13.05.1-.03 1.52h-.08l-.12 23.98v3.13l-20.8-2.15a81.08 81.08 0 0 1-7.26 14.4 56.83 56.83 0 0 1-6.5 8.33v4.93Z" fill="#D7D7D7"/><path d="m257.39 241.71.03 1.66.02.02v22.3a56.84 56.84 0 0 0 6.5-8.34 81.04 81.04 0 0 0 7.26-14.4l-5.92-.62-1.58-.17-2.14-.22v-3.2l2.14.22v-19.51l-.01-1.7v-1.52l15.5.11c.57-2.27 1.17-4.53 1.75-6.79l-1.58-.02h-.3l-10.32.3V208l3.42-.1v-.03l-.03-13.14v-.21h.05l9.48-.6v.88h-.06c.02.04.05.06.05.1v11.89c1.2-4.54 2.35-9.1 3.28-13.7l-8.9-16.4-18.74 39.15.07 19.68.03 6.16v.03Z" fill="#F4F4F4"/><path d="m315.25 184.86 7.49-10h-12.26l4.77 10Zm-6.72 9 6.1-8.18-5.15-10.83h-10.02l9.07 19Zm-19.63-19.01 13.18 27.62 5.83-7.8-9.44-19.81h-9.57Zm-3.96 18.25 12.15 22.41 1.87.01v-.03l4.09-.1-.02-8.85-1.14-2.4-.55-.65.22-.02v-.01l-.23.03.15-.2-13.57-28.44h-12.87v.01l1 1.85 8.9 16.4Z" fill="#8AB0C7"/><path d="M288.9 174.85h-1l13.58 28.44.6-.82-13.18-27.62Zm14.12 30.65-1.13-1.36 1.14 2.4v-1.04h-.01Zm4.89-10.82.62-.82-9.07-19h-1l9.45 19.82Zm6.73-9 .61-.82-4.77-10h-1l5.16 10.82Z" fill="#598AA9"/><path d="M278.2 199.26c-.7 2.2-1.4 4.4-2.25 6.53a27.7 27.7 0 0 1-.9 2.02l4-.1h.3l2.3.03v-12.82l-.05-.1-2.32.15a30.46 30.46 0 0 1-1.1 4.3h.01Z" fill="#C0E7F3"/><path d="M278.2 199.26c.45-1.41.85-2.84 1.09-4.3l-6.25.4.02 12.48.02.03 1.97-.06c.31-.67.6-1.34.89-2.03a92.78 92.78 0 0 0 2.24-6.52h.01Z" fill="#fff"/><path d="M272.14 194.52h.04-.04Zm.03 13.38.93-.02-.03-.04-.02-12.48-.9.05-.01-.67.03 13.14v.03Z" fill="#606A77"/><path d="m273.05 195.36 6.25-.4 2.32-.15h.06l-.01-.9-9.49.62h-.04v.88l.9-.05Z" fill="#606A77"/><path d="m282.48 207.75-.82-.01-2.29-.04v1.83l1.58.02 1.53.03v-1.83Zm-3.41-.05-4 .11-1.97.07-.93.03-3.42.09v1.83l10.32-.3v-1.83Z" fill="#255F82"/><path d="M279.37 207.7h-.3v1.83h.3v-1.83Z" fill="#8A605A"/><path d="M299.03 279.75h4.2l-.18-64.36-4.09.1v.03l.07 64.23Z" fill="#C4A295"/><path d="M282.43 220.84a127.61 127.61 0 0 1-4.18 4.81v14.81L292 241.9v.07l.12-23.98-7.47-.05c-.72 1-1.46 1.97-2.24 2.92Zm-5.16 5.85c-.9.97-1.82 1.96-2.75 2.9-2.24 2.23-4.68 4.74-7.47 6.26-.59.31-1.17.51-1.75.62v2.65l11.98 1.24V226.7Z" fill="#B3CCDE"/><path d="M278.25 225.65c1.43-1.57 2.83-3.17 4.18-4.8a56.2 56.2 0 0 0 2.24-2.93l-6.42-.04v7.77Zm-3.75 3.94c.94-.94 1.86-1.93 2.76-2.9v-8.81l-11.3-.08-.67-.02v18.7a6.67 6.67 0 0 0 1.74-.63c2.8-1.52 5.23-4.03 7.47-6.26Z" fill="#F2E2DA"/><path d="M265.3 216.44v1.34l.67.02 11.3.08v-.9l.5.13.48.1v.68l6.42.03 7.46.06h.09l.02-1.53-13.05-.1-15.5-.13v.01l.24.04 1.37.17Z" fill="#606A77"/><path d="M278.25 225.65v-8.43l-.48-.12-.5-.12v23.38l.98.1v-14.8Zm-12.97 13.47.01-2.65.01-16.97v-3.06l-1.37-.17-.24-.04v22.74l1.17.12.42.03Z" fill="#606A77"/><path d="M292.01 245.09v-3.2l-13.76-1.43-.98-.1-11.99-1.24-.42-.03-1.17-.13-2.13-.22v3.2l2.13.22 1.6.17 5.9.6 20.82 2.16Z" fill="#255F82"/><path d="m399.23 314.57-37.92-9.62-1.24-.31-18.34-4.65a17.32 17.32 0 0 1-4.08 4.62c8 7.1 16.12 14.32 23.82 21.01 7.87 7.4 15.86 14.7 23.95 21.87a216.33 216.33 0 0 0 20.06-31.34l-5.02-1.28-1.24-.3h.01Z" fill="#EBEBEB" style="mix-blend-mode:multiply" opacity=".57"/><path d="m399.23 314.57-37.92-9.62-1.24-.31-18.34-4.65a17.32 17.32 0 0 1-4.08 4.62c8 7.1 16.12 14.32 23.82 21.01 7.87 7.4 15.86 14.7 23.95 21.87a216.33 216.33 0 0 0 20.06-31.34l-5.02-1.28-1.24-.3h.01Z" fill="#D7D7D7" style="mix-blend-mode:multiply" opacity=".57"/><path d="M337.66 304.62a17.33 17.33 0 0 0 4.08-4.62l-13.06-3.31c2.96 2.6 5.96 5.25 8.98 7.93Z" fill="#fff"/><path d="M337.66 304.62a17.33 17.33 0 0 0 4.08-4.62l-13.06-3.31c2.96 2.6 5.96 5.25 8.98 7.93Z" fill="#EBEBEB" style="mix-blend-mode:multiply" opacity=".57"/><path d="M337.66 304.62a17.33 17.33 0 0 0 4.08-4.62l-13.06-3.31c2.96 2.6 5.96 5.25 8.98 7.93Z" fill="#D7D7D7" style="mix-blend-mode:multiply" opacity=".57"/><path d="m400.46 314.88 5.03 1.27c.93-1.77 1.84-3.56 2.72-5.35l-7.75-1.87v5.96Z" fill="#AFB0AF"/><path d="m400.46 314.88 5.03 1.27c.93-1.77 1.84-3.56 2.72-5.35l-7.75-1.87v5.96Z" fill="#D7D7D7" style="mix-blend-mode:multiply" opacity=".57"/><path d="M399.23 314.57v-5.95l-37.92-9.17v5.5l37.92 9.62Z" fill="#AFB0AF"/><path d="M399.23 314.57v-5.95l-37.92-9.17v5.5l37.92 9.62Z" fill="#D7D7D7" style="mix-blend-mode:multiply" opacity=".57"/><path d="m369.3 294.58-9.46-2.13v-.02l-10.67-2.3v.04l-2.73.37-15.99-3.46v-.98l-18.76-4.04c2.23 1.86 4.52 3.8 6.86 5.82l90.17 21.8c.9-1.86 1.77-3.74 2.61-5.63l-34.73-7.83-7.31-1.65v.01Z" fill="#AFB0AF"/><path d="m369.3 294.58-9.46-2.13v-.02l-10.67-2.3v.04l-2.73.37-15.99-3.46v-.98l-18.76-4.04c2.23 1.86 4.52 3.8 6.86 5.82l90.17 21.8c.9-1.86 1.77-3.74 2.61-5.63l-34.73-7.83-7.31-1.65v.01Z" fill="#D7D7D7" style="mix-blend-mode:multiply" opacity=".57"/><path d="m328.68 296.69 13.06 3.3 18.34 4.66v-5.5l-34.97-8.45v2.85l3.57 3.13Z" fill="#AFB0AF"/><path d="m328.68 296.69 13.06 3.3 18.34 4.66v-5.5l-34.97-8.45v2.85l3.57 3.13Z" fill="#D7D7D7" style="mix-blend-mode:multiply" opacity=".57"/><path d="m323.87 290.4-3.33-.81 3.33 2.9v-2.1Z" fill="#AFB0AF"/><path d="m323.87 290.4-3.33-.81 3.33 2.9v-2.1Z" fill="#D7D7D7" style="mix-blend-mode:multiply" opacity=".57"/><path d="M194.25 267.3h-4.47l-32.88 9.07c.34 0 .6.27.6.6v.47l36.75-10.15ZM44.7 307.96a.6.6 0 0 1 .61-.61.6.6 0 0 1 .62.61v.29l37.92-10.48v-.7a.6.6 0 0 1 .61-.62.6.6 0 0 1 .62.62v.36l21.26-5.87 13.5-3.73v-.46a.6.6 0 0 1 .61-.61.6.6 0 0 1 .61.61v.12l35.19-9.72v-.8a.6.6 0 0 1 .3-.52l-48.18 13.3-85.33 23.57.56 1.09 21.07-5.82v-.63h.02Z" fill="#515252"/><path d="m161.34 198.84 2.19.02-8.5-17.92-5.8-12.2-10.52-22.18-1.28 2.35 23.91 49.93Z" fill="#255F82"/><path d="m153.5 256.4 2.72-.49-.25.03-2.47.47Z" fill="#D7D7D7"/><path d="M120.44 269.2v-.97l.06-11.54v-1.85l.02-2.94v-1.84l.04-9.6v-2l12.03-1.26.24-.04v.11l-.04 28.17.1-.02h2.6v1.93h2.59v1.9l.08-.01h2.58v1.86h2.58v1.43l17.84-3.9V248.2a105.32 105.32 0 0 1-4.35-6.85v14.45l1.71-.3v2.32l-18.12 3.29-.39.03-2.64.24v-2.16h-.02l-.05-6.01V237.5h-.02v-.94l16-1.7c-.88-1.75-1.74-3.5-2.57-5.27l-25.91 2.78-.4.05-.66.07-.39.03-3 .27V201.9l6.62-.25 12.23-.27a278.9 278.9 0 0 1-3.7-10.65l-1.89.03h-.39l-3.96.06v-2.34h1.04v-16.37c0-.06.03-.1.05-.14h-.07v-.35c-.5-2.33-.94-4.67-1.34-7.03l-1.6 2.97-16.3 30.04.45.87h-.04.1l-2.28 3.21h-.05l-.02 33.45v2.52l-.04 42.41 8.08-1.83.43-.1.36-.07 2.45-.54v-8.33h-.03Z" fill="#D7D7D7"/><path d="M161.35 200.25v-1.4l-23.92-49.92-8.52 15.7c.4 2.35.84 4.68 1.34 7.02v-.79l12.07.23h.1v.28l-.04 16.94 4.37-.05v2.33l-11.28.14c1.15 3.58 2.4 7.12 3.7 10.65l13.52-.3h.1v19.61l-.02.39v5.94l2.44-.26v2.33l-4.5.48c.83 1.78 1.7 3.53 2.57 5.27l2.48-.28 1.05-.1v6.88a104.1 104.1 0 0 0 4.35 6.85v-14.28l.04-.02.03-2.1.05-11.58.02-4.97.05-15.02v.03Z" fill="#F4F4F4"/><path d="m111.02 197.62 16.29-30.04a82.75 82.75 0 0 1-14.25-1.67l-8.56 17.91 3.27 7.4 3.24 6.39Zm-14.78-32.78v.2l1.2 2.75 2.82-5.9c-.58-.24-1.18-.5-1.76-.77a50 50 0 0 1-4.83-2.66l4.96 6.53-2.38-.15h-.01Zm7.66 17.6 8-16.77a66.2 66.2 0 0 1-10.6-3.32l-3.25 6.82.67 1.53 5.18 11.76v-.02Z" fill="#8AB0C7"/><path d="m96.23 164.82-.01-.01h.01Z" fill="#8AB0C7"/><path d="M113.06 165.91a84.5 84.5 0 0 0 14.25 1.68l1.6-2.97 8.52-15.7 1.28-2.34v-.02h-16.4l-9.24 19.37-.01-.02Zm-19.53-19.36v-.01h-5.45l2.61 5.93 2.84-5.92Zm-2.23 7.31 1.16 2.61.43.97.78 1.02a50.5 50.5 0 0 0 4.84 2.66c.57.27 1.17.53 1.75.78l7.32-15.35H94.8l-3.5 7.32v-.01Zm10 8.49a64.99 64.99 0 0 0 10.6 3.32l9.14-19.12h-12.2l-7.54 15.8Z" fill="#B3CCDE"/><path d="m131.8 248.44.01-9.12-2.18.22v9.21l2.17-.3Zm-5.45.79v-9.35l-2.55.26v9.45l2.55-.36Zm2.89-.43v-9.22l-2.5.25v9.34l2.5-.36Zm-5.84-8.62-2.84.28-.04 9.6 2.88-.42v-9.46Zm2.95 15.66-2.55.37v11.15l2.55-.54v-10.98Zm0-4.77-2.55.36v2.94l2.55-.36v-2.94Zm2.89-.42-2.5.36v2.93l2.5-.35v-2.94Zm.39 2.88 2.16-.3.01-2.94-2.17.3v2.94Zm-.39 1.9-2.5.35v10.95l2.5-.53v-10.77Zm.39 10.69 2.14-.46.02-10.6-2.16.31v10.75Zm-6.23-14.63-2.88.41-.02 2.94 2.9-.41v-2.94Zm-2.95 16.57h.02l2.93-.62v-11.17l-2.91.42-.05 11.54v-.17h.01Z" fill="#CC9A89"/><path d="m123.4 249.64-2.88.42v1.84l2.88-.41v-1.85Zm2.95-.41-2.55.36v1.84l2.55-.36v-1.84Zm3.28 1.37 2.17-.31v-1.85l-2.17.31v1.84Zm-.39-1.8-2.5.37v1.84l2.5-.36v-1.84Zm-2.89 5.2-2.55.37v1.84l2.55-.37v-1.83Zm3.28 1.38 2.16-.32v-1.83l-2.16.3v1.84Zm-6.23-.95-2.9.41-.01 1.85 2.9-.42v-1.84Zm5.84-.84-2.5.35v1.84l2.5-.35v-1.84Z" fill="#7D7D7D"/><path d="m132.82 237.17-.24.03.24-.02v-.01Zm-1.01 2.15v10.97l-.02 2.94v1.83l-.02 10.6 1-.21.05-28.17-.04 1.94-.97.1Z" fill="#01132B"/><path d="M123.8 256.21v-16.07l-.4.04v27.26l.4-.08V256.2Zm2.55-5.14v15.75l.39-.09v-26.9l-.39.05v11.19Zm2.89-.42v15.55l.39-.08v-26.57l-.4.03v11.07Z" fill="#7D7D7D"/><path d="m123.8 240.14 2.55-.26.39-.05 2.5-.25.39-.04 2.18-.22.97-.1.04-1.94v-.1l-.24.02-12.03 1.26v2h.01l2.84-.28.4-.04Z" fill="#01132B"/><path d="m111.9 165.67-8 16.78.61 1.38 8.55-17.92 9.24-19.36.01-.01h-1.27l-9.13 19.13Zm-11.65-3.77-2.81 5.88.61 1.4 3.25-6.83 7.54-15.8v-.01h.01-1.28l-7.32 15.36Zm-9.55-9.43.6 1.39 3.5-7.31v-.01h-1.27l-2.84 5.93Z" fill="#255F82"/><path d="M130.88 275.75h-2.6v-1.86h-.39v-.01h-2.2v-1.83h-.47V272h-2.18v-1.7h-.39v-.23h-2.2v-.85 8.36l2.05.02 8.38.08v-1.92Zm.21 1.92 1.97.02v-.02h-1.97Z" fill="#3E4B59"/><path d="m122.65 268.5-.03-.06h-2.17v1.61h2.2v-1.56Zm.39 1.4h.42l12.01-2.54v-1.56l-12.43 2.66v1.44Zm8.73-4.24-2.14.46-.4.08-2.48.53-.4.09-2.54.54-.4.08-2.92.62h2.36l12.47-2.62h-2.41l-.12.02-1 .21h-.02Zm-6.3 4.65h-.02l.33 1.32h.02l-.33-1.32Zm-.24.02-.03-.04h-2.16v1.69h2.19v-1.65Z" fill="#3E4B59"/><path d="M125.63 270.3v1.35h1.13l11.3-2.38v-1.63l-12.43 2.66Zm-2.17-.4h1.94l12.09-2.54h-2.03l-12 2.53Zm4.44 2.19-.04-.05h-2.17v1.84h2.2v-1.79Zm.38-.03v1.44h1.22l11.22-2.38v-1.72l-12.44 2.66Z" fill="#3E4B59"/><path d="M126.76 271.65h1.3l11.43-2.4h-1.36l-.08.02-11.3 2.4v-.02Zm4.1 4.02h-.39v-1.74l-.03-.04h-2.15v1.86h2.58v-.08Zm.01-1.77v1.38-1.38Zm0 0v1.38h1.87l10.57-2.24v-1.8l-12.44 2.65Zm.33 1.77h.03-.35v.08-.08h.33Zm-1.7-2.17h1.15l11.28-2.39h-1.21l-11.22 2.38Zm3.96 2.17-.02.01.02 1.98v.01-2Z" fill="#3E4B59"/><path d="m133.06 275.7-.03-.03h-2.16v2h2.19v-1.97Zm.54-.05h-.01l-.13.02v2l12.44-2.63v-2l-1.35.29-.14.03-5.1 1.07-4.26.9-1.46.32Z" fill="#3E4B59"/><path d="m135.05 275.34 4.26-.9 5.1-1.08.14-.03 1.35-.3h-.13l-9.98 2.15-.74.16Zm-2.31-.06h.5l.38-.07 10.26-2.16h-.57l-10.57 2.24Z" fill="#3E4B59"/><path d="M122.65 268.5v1.4h.4v-1.45l12.42-2.66v-.37h-.17l-12.47 2.62h-2.38v.4h2.17l.03.04v.01Z" fill="#8A605A"/><path d="M125.23 270.33v1.32h.39v-1.35h.02l12.42-2.67v-.28h-.56l-12.09 2.54h-2.76v.39h2.56l.03.04-.01.01Z" fill="#8A605A"/><path d="m127.86 272.05.03.05v1.4h.4v-1.44l12.43-2.66v-.15h-1.22l-11.42 2.4h-2.85v.4h2.64Z" fill="#8A605A"/><path d="M130.46 273.93v1.35h.4v-1.38l12.44-2.66v-.12h-1.38l-11.28 2.38h-2.76v.39h2.55l.03.04Z" fill="#8A605A"/><path d="M133.23 275.28h-2.77v.4h2.57c0 .01 0 .02.03.03v1.98h.38v-2.01l.13-.03 1.45-.3.76-.16 9.97-2.13h-1.9l-10.26 2.16-.39.07h.03Z" fill="#8A605A"/><path d="M149.96 251.78v-15.64l-6.75.72v15.97l6.75-1.06Zm-7.14 1.5-4.7.74.03 3.88 4.67-.73v-3.89Zm-4.7.21v.14l4.7-.74V236.9l-4.7.51v16.08Zm11.84 2.55v-3.88l-6.75 1.07v3.88l6.75-1.07Zm.39-4.34 5.43-.84-.02-15.35h-.01l-5.4.58v15.62Zm0 .4v3.88l5.44-.87v-3.86l-5.44.85Z" fill="#FFF9F5"/><path d="m137.36 259.06-.04-.68.52-.42.31-.06-.02-3.88-.83.13v-.4l.82-.12V237.4l-.84.09v15.7l.04 6.03.04-.01v-.16Z" fill="#FFF9F5"/><path d="m142.82 257.17-4.67.73-.31.06-.52.42.04.68 2.63-.24.4-.04 2.43-.44v-1.17Zm7.53-1.19v1l3.15-.57 2.47-.47-.18.01v-.84l-5.44.87Zm-.39.06-6.75 1.06v1.17l6.75-1.22v-1.01Z" fill="#FFF9F5"/><path d="m155.76 235.51.02 15.35h.05l.46-.06h.06c.12.05.12.3 0 .37l-.06.02-.46.06h-.05v4.71l.19-.02.25-.02.57-.1v-20.4l-1.03.1Z" fill="#606A77"/><path d="M137.26 237.5h.02l.85-.09 4.69-.51v-.13l.39-.06v.15l6.75-.72v-.3l.39-.06v.31l5.4-.58h.01l1.03-.1v-.93l-1.04.1-2.49.27-16 1.72v.94Zm5.56 15.4-4.7.73-.82.13v.39l.83-.13 4.69-.74v-.39Zm7.14-.74v-.38l-6.75 1.06v.39l6.75-1.06Zm.39-.46v.4l5.43-.85h.05l.46-.06c.02 0 .04 0 .06-.02.12-.06.12-.32 0-.37h-.06l-.46.06h-.05l-5.43.86v-.01Z" fill="#606A77"/><path d="M142.82 253.28v5.06l.39-.07V236.7l-.4.06v16.52Zm7.14-1.5v5.26l.39-.07v-21.19l-.4.06v15.94Z" fill="#606A77"/><path d="m153.5 256.4-3.15.57-.4.08-6.74 1.22-.4.07-2.43.44v2.33l18.12-3.28v-2.32l-1.7.3-.58.1-2.72.5Zm-13.5 2.42-2.65.24v2.33l2.64-.24v-2.33Z" fill="#255F82"/><path d="m140.38 258.78-.39.04v2.33l.4-.04v-2.33Z" fill="#8A605A"/><path d="m131.06 188.46 2.13-.02h.4l7.64-.1.03-16.15-10.27-.2c.02.06.06.1.06.16v16.31Z" fill="#FFF9F5"/><path d="M131.06 188.46v-16.31c0-.06-.04-.1-.06-.15h-.67s-.05.06-.05.12v16.35h.79-.01Z" fill="#FFF9F5"/><path d="m141.26 172.2-.03 16.13 1.15-.02.04-16.94-.01.84-1.15-.02Zm1.16-1.13h-.1.1Z" fill="#606A77"/><path d="m130.32 171.98.68.02 10.26.2 1.15.01v-1.14h-.09l-12.06-.22v.78l-.01.35h.07Z" fill="#606A77"/><path d="m133.2 188.44-2.14.02-.8.01-1.03.02v2.33l3.96-.05v-2.33Zm8.03-.11-7.65.1v2.33l1.89-.03 11.28-.14v-2.33l-4.37.06-1.15.01Z" fill="#01132B"/><path d="M133.58 188.43h-.39v2.34h.4v-2.34Z" fill="#8A605A"/><path d="m123.32 230.18.4-.03.66-.08.39-.04 4.86-.53V223l-2.3.19-.4.04-6.6.55v8.53-1.87l3-.26Zm4.01-7.38 2.3-.19v-6.16l-2.3.17-.21.02-.19.02-6.6.5v6.22l6.6-.55.4-.03Zm12.86-.67-.4.04-6.22.5-.4.04-3.15.26v6.5l12.46-1.34v-6.19l-2.3.19Zm8.65-.72-2.68.22-.4.04-2.88.24v6.18l8.78-.94v-5.97l-2.81.23Zm-21.91-12.01.4-.03 2.29-.13v-6.36l-9.3.24v6.66l3.2-.18 3.41-.2Zm6.25-.35.38-.02 6.24-.35.39-.03 2.3-.13v-5.96l-12.47.32v6.36l3.16-.19Zm-6.25 7.21.4-.03 2.3-.18v-6.4l-2.3.13-.4.02-3.25.19-3.36.19v6.58l6.42-.48.2-.02Zm15.55-.77-2.3.17-.38.03-6.24.47-.38.02-3.16.25v6.14l3.16-.26.38-.03 6.24-.51.39-.03 2.3-.2v-6.05Zm3.28-.24-2.88.2v6.06l2.88-.24.4-.03 1.41-.12 4.1-.33v-6l-5.51.42-.4.03Zm0-6.92.4-.02 5.53-.31v-5.67l-8.8.22v5.95l2.87-.17Zm0 .39-2.88.17v6.17l2.88-.22.4-.02 5.52-.42v-6.01l-5.52.32-.4.01Zm-3.28.19-2.3.14-.38.02-6.24.35-.38.03-3.16.18v6.4l3.16-.24.38-.02 6.24-.47.39-.04 2.3-.16v-6.19Z" fill="#FFF9F5"/><path d="M129.63 223v6.5l.39-.03v-6.5l-.4.03Zm0-13.35v6.4l.39-.02v-6.4l-.4.02Zm.39 6.78-.4.02v6.16l.4-.04v-6.14Zm0-7.19v-6.36l-.4.01v6.36l.4-.01Zm12.46 12.7v6.19l.4-.04v-6.19l-.4.04Zm.4-6.48-.4.03v6.05l.4-.03v-6.05Zm0-6.96v-5.95h-.4v5.97l.4-.02Zm0 .4-.4.01v6.19l.4-.04v-6.17Z" fill="#606A77"/><path d="m127.33 223.19 2.3-.19.39-.03 3.16-.26.38-.03 6.24-.51.39-.04 2.3-.19.4-.03 2.87-.24.4-.03 2.68-.23 2.83-.23v-.4l-4.1.34-1.41.12-.4.03-2.88.24-.4.03-2.3.2-.38.03-6.24.5-.38.04-3.16.26-.4.04-2.29.19-.4.03-6.6.54v.4l6.6-.54.4-.04Zm-.21-6.55.21-.02 2.3-.17.39-.02 3.16-.25.38-.02 6.24-.47.39-.03 2.3-.17.4-.03 2.87-.22.4-.03 5.52-.41v-.4l-5.52.42-.4.03-2.88.2-.4.05-2.3.16-.38.04-6.24.47-.38.02-3.16.24-.4.02-2.29.18-.4.03-.2.02-6.4.48v.4l6.6-.5.19-.02Zm-.19-6.84.4-.03 2.3-.13.39-.01 3.16-.18.38-.03 6.24-.35.39-.02 2.3-.14.4-.02 2.87-.17.4-.01 5.53-.32v-.4l-5.53.32-.4.02-2.88.17-.4.02-2.3.13-.38.03-6.24.35-.38.02-3.16.19-.4.01-2.29.13-.4.02-3.41.2-3.2.18v.4l3.36-.2 3.25-.18Zm25.87-8.73h-.11.1Z" fill="#606A77"/><path d="M151.7 202.32v.01l-.01 5.67v.39l-.01 6v.4l-.01 6v1.56l-.01 4.8 1.09-.12v-6.33l.02-5.97v-.4l.01-6v-.39l.01-5.63-1.1.02Z" fill="#606A77"/><path d="M120.31 201.9v1.22h.02l9.3-.23h.39l12.46-.33.4-.01 8.82-.23 1.1-.02v-1.22h-.11l-13.52.3-12.23.27-6.63.26Z" fill="#606A77"/><path d="m151.66 227.15-8.78.94-.4.04-12.46 1.34-.4.03-4.85.53-.39.04-.67.08-.39.03-2.99.26v2.34l3-.27.38-.03.67-.07.4-.04 25.91-2.79 4.5-.48v-2.33l-2.44.26-1.1.12Z" fill="#255F82"/><path d="M52.66 286.72v-79.47a3.46 3.46 0 0 1 1.07-2.86c.54-.57 1.22-.98 1.75-1.56.13-.15.23-.31.33-.48l-6.25.1L49.5 293v.02l5.52-1.2c-.85-1.2-1.76-2.4-2.16-3.78-.08 0-.22-1.06-.22-1.3l.02-.03Z" fill="#E4E5E5"/><path d="M109.16 237.67v-2.52l.03-33.45-12.94.14-.03-3.27v-4.01H94.1v-.03l-29.88.48 1.61 4.02h.01l-2.28 3.2-5.88.09a4.7 4.7 0 0 1-.89 1.5c-.75.86-2.4 1.7-2.48 2.91v80.13c.13 1.64 1.53 3.21 2.48 4.57l.2-.05.88-.18 2.36-.51v-12.45a.23.23 0 0 1 0-.16v-.06h.02s.06-.04.11-.05v-34.3h-1.21v-3.47h1.2l17.85-1.84.06 3.45-1.5.16-.03 32.56.08-.02h3.44v2.57h3.47v2.55l.1-.02h3.43v2.48h3.44v2.02l18.44-3.97v-.09l.04-42.4-.01.02ZM98.99 203.6l1.09-.02v18.55l2.06-.14v2.44l-10.84.76-.41.03-2.76.2v-2.44h.08l.01-18.05h-.02v-.98l10.79-.34v-.01Zm-21.34 22.67-10.84.76-.41.03-3.13.21v-2.5l.03-9.96v-.41l.02-9.12v-.97l11.62-.34.94-.04v20.02l1.75-.12v2.44h.02Zm4.93 42.43-.04-10.45V241.4h-.02v-.97l21.27-2.26 1.1-.1v26.6l1.77-.32v2.44l-20.88 3.87-.4.03-2.77.26v-2.27h-.03Z" fill="#E4E5E5"/><path d="m34.7 156.51-.03.01 11.36 29.09v-.04L34.71 156.5v.01Zm14.89 45.93-3.4.05v-.48l-.1 91.12 3.44-.1V293l.06-90.56Z" fill="#606A77"/><path d="m51.32 199.17-5.29-13.59v.03l3.06 7.81h-2.9v5.8l5.13-.05Zm44.91-5.47v4.87h1.94l-1.94-4.87Z" fill="#01132B"/><path d="M31.85 128.51c2.6.23 4.98 1.24 6.95 2.75L35.1 122a20.96 20.96 0 0 1-3.24 6.53Zm9.25 4.95c2 2.38 3.26 5.4 3.42 8.54l7.52 18.78 9.32-10.82-5.34-13.3-5.12-.51-6.65-13.12-.03-4.73-.76-.13-7.02-1.18-.48-.09c-.05.98-.16 1.95-.33 2.9l5.48 13.66h-.01Zm55.13 60.24 1.94 4.86 13.25-.07h.04l-.44-.88-3.25-6.38-3.26-7.4-.6-1.4-5.2-11.75-.66-1.53-.61-1.38-1.21-2.75v28.68Zm-33.89-44.86 3.61-4.2 7.45-.33-.34-.34a73.8 73.8 0 0 1-5.23-6.14L57.5 136.8l4.83 12.04Zm1.46 13.31h-.11.12l1.7-1.86-1.71 1.86Zm28.66-5.68h-.06l-.28-.02.77 1-.43-.98Zm-46.43 29.11 5.3 13.6 14.51-.14-1.6-4.02h-.03V195l-13.17-33.04h-.02l.04-.05-6.75-16.85c-.07.38-.14.77-.24 1.15a15.53 15.53 0 0 1-9.37 10.31l11.32 29.07.01-.01Z" fill="#598AA9"/><path d="m73.4 144.3 1.4-.06-6.62-16.5v10.12l-.34-.04a70.27 70.27 0 0 0 5.23 6.14c.1.12.23.23.34.34h-.01Zm-5.22-20.09 7.64 19.04 1.72-1.99 2.36-.17.52-.04 11.7 15.4.27.02h.06l-1.15-2.61-.62-1.39-2.6-5.93-9.94-22.57-9.96-1.67v1.91Z" fill="#8AB0C7"/><path d="m35.09 121.98 3.71 9.27c.85.65 1.62 1.4 2.3 2.2l-5.48-13.66a19.4 19.4 0 0 1-.54 2.2Zm15.98 39.92.97-1.13L44.52 142c.05 1.01-.01 2.04-.2 3.05l6.75 16.85Zm6.43-25.1-1.47-.15 5.34 13.3.97-1.11-4.83-12.04Zm17.44 7.44.88-1-7.64-19.03v3.54l6.62 16.5h.14Z" fill="#083D5B"/><path d="M51.03 161.95h.01l10.55.17-.53-.02-1.67-.03 15.55-17.83h-.14l-1.4.07-7.45.33-3.61 4.2-.97 1.11-9.32 10.82-.98 1.13-.04.05Zm12.77.19h-.1.1l1.72-1.85.98-1.08 9.95-10.86.98-1.08 3-3.27-16.62 18.14Z" fill="#8AB0C7"/><path d="M63.8 164.24v-2.1h-.11l-2.26.16.16-.18-10.55-.18v.01L64.21 195l-.4-30.76Z" fill="#255F82"/><path d="M96.23 193.7v-28.88L80.44 144l-3 3.27-.98 1.08-9.95 10.85-.99 1.08-1.7 1.86v2.1l.4 30.75v.01h.03l29.88-.48v.02h2.12v-.84h-.02Zm-6.93-29.57v20.1l1.44-.03v2.44l-13.78.29h-.41l-4.15.1v-1.93h-.01l-.03-4.68V180l-.03-4.59v-.4l-.03-4.79v-.4l-.02-4.69h-.02v-1.02l17.04.03v-.02Z" fill="#E4E5E5"/><path d="M80.24 174.84v-9.7l-7.97-.01.03 4.67v.42l.02 4.78 7.92-.16Zm-3.69 9.66.4-.02 3.3-.06V184l-.01-8.75-7.92.16.03 4.6.01.4.02 4.69h.02v-.52l4.15-.09Zm4.71-9.26v9.16l7.05-.15-.02-.47v-8.68l-7.03.14Zm0-.41 7.03-.14-.01-9.54h-7.02v9.68Z" fill="#FFF9F5"/><path d="M88.28 165.15v9.53h.32c.17.07.17.33 0 .4h-.32v8.7l.02.47 1-.02v-20.08 1.01h-1.02Zm-7.02 10.09-1.02.01V184l.01.42 1-.02v-9.16Zm-1.02-.4 1.02-.01v-9.69h-1.02v9.7Z" fill="#606A77"/><path d="M72.26 164.1v1.03l7.98.01h1.02l7.02.01 1.02.01v-1.03l-17.04-.03Z" fill="#606A77"/><path d="m76.55 184.5-4.15.08v2.44l4.15-.1v-2.43Zm11.75-.25-7.04.15-1 .02-3.3.06v2.44l13.78-.28v-2.44l-1.44.03-1 .02Z" fill="#01132B"/><path d="m80.24 175.25 1-.01 7.04-.14h.24s.06 0 .08-.02c.17-.07.17-.33 0-.4h-.32l-7.03.15-1.01.01-7.92.16v.41l7.92-.16Z" fill="#606A77"/><path d="M80.43 141.1v2.9l.01.02 15.78 20.8h.01v.03l2.39.15-4.96-6.53-.78-1.02-.76-1-11.69-15.4v.07Z" fill="#01132B"/><path d="m61.43 162.3 2.26-.15h.01l.1-.01L80.44 144v-2.96L61.6 162.11l-.01.01-.16.18Z" fill="#01132B"/><path d="m59.39 162.07 1.67.03.54.01 18.83-21.07-.53.04-2.36.17-1.72 1.99-.88 1-15.55 17.83Z" fill="#01132B"/><path d="m76.96 184.48-.41.01v2.44l.4-.01v-2.44Z" fill="#8A605A"/><path d="m64.22 205.25-.02 9.08 5.66-.38a56.34 56.34 0 0 1-1.75-8.82l-3.89.12Zm5.75 9.1-5.78.4-.03 9.95 9.54-.74c-1.75-2.9-2.8-6.4-3.7-9.47 0-.05-.03-.1-.04-.14h.01Zm-5.77-.02.02-9.09-.88.02-.03 9.13.89-.06Z" fill="#FFF9F5"/><path d="m64.17 224.7.03-9.96-.89.06-.02 9.97.88-.07Z" fill="#FFF9F5"/><path d="m66.4 224.61.4-.03 6.98-.48-.08-.13-9.54.74-.88.06v.06l3.12-.2v-.02Z" fill="#D7D7D7"/><path d="M68.1 205.13c.35 2.98.94 5.92 1.76 8.82l4.95-.33v-8.68l-6.7.2Zm6.72 18.57v-9.67l-4.85.32.04.14c.9 3.06 1.95 6.57 3.7 9.47l.08.13 1.03-.07v-.33.01Z" fill="#B3CCDE"/><path d="M74.81 204.94v8.68l.8-.06h.06c.12.06.12.32 0 .4l-.06.01-.79.06v10l1.08-.08v-19.23.19l-1.09.03Zm1.09-1.02-.94.04.94-.03Z" fill="#606A77"/><path d="m64.22 205.25 3.89-.12 6.7-.2 1.09-.02v-.98l-.94.03-11.63.34v.96h.01l.88-.01Z" fill="#606A77"/><path d="m66.4 224.61-3.12.22h-.01v2.44l3.13-.22v-2.44Zm8.42-.58-1.03.06-6.98.5v2.43l10.83-.76v-2.44l-1.74.12-1.08.09Z" fill="#01132B"/><path d="m66.8 224.58-.4.03v2.44l.4-.03v-2.44Z" fill="#606A77"/><path d="M93.93 215.07c-.26-.6-.49-1.2-.72-1.8l-4.11.2v9.42l1.79-.13.4-.03 6.44-.44-.4-.46c-1.62-1.79-2.47-4.58-3.4-6.75v-.01Zm-.89-2.21a73.2 73.2 0 0 1-2.41-8.02l-1.53.04v8.17l3.94-.2v.01Z" fill="#FFF9F5"/><path d="M89.08 222.9v-9.43l-.87.03v-.4l.88-.04.02-8.18-.89.03-.01 18.05.87-.07Z" fill="#FFF9F5"/><path d="M93.93 215.07c.93 2.18 1.78 4.97 3.4 6.75l.4.46 1.3-.1-.02-9.2-5.8.28c.23.6.46 1.21.72 1.8Zm5.07-2.5-.01-8.01-8.36.27a74.7 74.7 0 0 0 2.41 8.02l5.96-.28Z" fill="#B3CCDE"/><path d="m98.99 204.57.02 8 .7-.03h.06c.12.06.12.32 0 .4h-.06l-.7.04.01 9.21 1.06-.07v-18.55.98l-1.08.02h-.01Z" fill="#606A77"/><path d="M88.2 204.91h.02l.89-.03 1.52-.04 8.36-.27 1.09-.02v-.98l-1.1.02-10.78.34v.98Z" fill="#606A77"/><path d="m90.88 222.76-1.8.13-.87.07h-.09v2.44l2.76-.2v-2.44Zm8.15-.56-1.3.09-6.44.44v2.44l10.84-.76v-2.43l-2.05.14-1.05.07Z" fill="#01132B"/><path d="m91.29 222.73-.41.03v2.44l.4-.03v-2.44Zm-2.2-9.67-.88.04v.41l.88-.04 4.11-.2 5.8-.3.7-.03.06-.01c.12-.07.12-.33 0-.4h-.06l-.7.04-5.96.28-3.95.2Z" fill="#606A77"/><path d="M83.43 241.31v5.02l6.03-.75v-4.91l-6.03.64Zm13.51 15.14-7.07.88v5.19l7.07-1.09v-4.98Zm-13.52-4.09v5.36l6.04-.76v-5.34l-6.04.74Zm0-5.62v5.21l6.04-.74v-5.22l-6.04.75Zm13.92 3.49 6.48-.8-.01-5.22-6.47.8v5.22Zm6.46-6.43v-4.65h-.01l-6.45.68v4.77l6.47-.8Zm-6.86 6.89-7.07.87v5.36l7.07-.88v-5.35Zm.4 11.08v3.8l6.5-.99-.01-3.81-.1.02-6.39.98Zm0-.4 6.38-1 .1-.01v-4.76l-6.48.8v4.97Zm-.4-16.71v-4.78l-7.07.74v4.91l7.07-.87Zm0 20.97v-3.8l-7.07 1.1v3.77l7.07-1.06Zm.4-9.64 6.49-.8-.01-5.35-6.48.8v5.35Zm-.4-10.92-7.07.87v5.21l7.07-.87v-5.21ZM89.46 263l-6.02.92.01 3.76 6-.91v-3.78Zm0-.42v-5.2l-6.04.74.02 5.4 6.02-.94Z" fill="#FFF9F5"/><path d="m83.18 267.72.27-.04-.01-3.76-.3.05-.57.1v-.42l.57-.09.3-.04-.02-5.4-.3.04-.57.07.03 10.46v-.89l.6-.08Zm.24-21.39.01-5.02-.88.1v5.03l.87-.1Zm0 11.39v-5.36l-.87.11-.01 5.36.58-.07.3-.04Zm0-5.77v-5.2l-.87.1v5.21l.87-.1Zm6.45 14.75v.77l7.07-1.31v-.53l-7.07 1.07Zm7.47-.62 6.5-1.2v-.3l-6.5.99v.51Z" fill="#FFF9F5"/><path d="m82.61 268.5 2.76-.24.41-.04 3.68-.68v-.77l-6.01.91-.27.04-.6.08v.89h.03v-.18Z" fill="#FFF9F5"/><path d="M103.8 239.15v4.65l.7-.08h.06c.12.06.12.32 0 .4-.02 0-.04 0-.06.02l-.68.08v5.21l.7-.08h.05c.12.06.12.32 0 .4l-.06.01-.68.09v5.35h.05l.5-.07h.05c.12.06.12.32 0 .4l-.06.01-.49.07h-.04v4.77l.38-.06h.05c.12.06.12.32 0 .4l-.05.01-.38.06v4.11l1.05-.2v-25.64l-1.08.11v-.02Z" fill="#606A77"/><path d="m83.43 241.31 6.03-.64v-.22l.4-.05v.22l7.08-.74v-.4l.4-.05v.4l6.45-.68h.02l1.08-.11v-.98l-1.1.12-21.27 2.25v.97h.03l.88-.09Zm13.91 9.33 6.48-.8.69-.08s.03 0 .05-.02c.12-.08.12-.34 0-.4h-.06l-.68.08-6.48.8v.42Zm-.4-.36-7.07.87v.41l7.07-.87v-.41Zm-13.52 2.08 6.04-.74v-.41l-6.04.74-.87.11h-.01v.41l.88-.11Zm13.92-7.35 6.47-.8.69-.08s.03 0 .05-.02c.12-.08.12-.34 0-.4h-.05l-.7.08-6.46.8v.42Zm-.4-.35-7.07.87v.41l7.07-.87v-.41Zm-13.52 2.08 6.04-.75v-.41l-6.04.75-.87.1h-.02l.01.42.88-.1Zm13.52 9.3-7.07.88v.4l7.07-.87v-.4Zm.4.36 6.49-.8h.04l.5-.07c.01 0 .03 0 .05-.02.12-.07.12-.32 0-.39h-.05l-.5.07h-.04l-6.49.8v.42-.01Zm-13.92 1.72 6.04-.75v-.4l-6.04.75-.3.04-.58.07v.4l.58-.07.3-.04Zm13.52 3.31-7.07 1.09v.4l7.07-1.08v-.41Zm.4-.06v.4l6.38-.98.1-.02.39-.06.05-.01c.12-.08.12-.34 0-.4h-.05l-.38.06-.1.02-6.39.99ZM89.46 263v-.42l-6.02.94-.3.04-.57.1v.4l.57-.09.3-.05 6.02-.93Z" fill="#606A77"/><path d="M89.87 266.7v-26.3l-.41.05v27.09l.4-.07v-.77Zm7.07-21.63v21.09l.4-.08v-26.65l-.4.06v5.57Z" fill="#606A77"/><path d="m82.61 270.96 2.76-.26v-2.44l-2.76.25v2.45Zm21.23-6.08-6.5 1.2-.4.08-7.07 1.3-.41.08-3.68.68v2.44l20.88-3.87v-2.43l-1.77.33-1.05.2Z" fill="#01132B"/><path d="m85.78 268.22-.4.04v2.44l.4-.04v-2.44Z" fill="#8A605A"/><path d="m64.2 214.74 5.78-.39 4.84-.32.8-.06s.03 0 .05-.02c.12-.07.12-.32 0-.39h-.06l-.79.06-4.95.33-5.66.38-.89.06v.4l.89-.05h-.01Z" fill="#606A77"/><path d="m63.15 259.08 4.17-.46v-13.24l-4.17.41v13.29Zm6.12-.74 4.2-.5V244.8l-4.17.4-.03 13.15Zm.13 3.11-.01 11.64 4.18-.83-.02-11.35-4.15.54Zm-6.14 12.72 4.17-.81v-11.74l-4.17.5v12.05Z" fill="#D7D7D7"/><path d="m75.65 274.78.03-32.67-14.44 1.49v34.23l14.4-3.05Zm-1.67-2.15-5.01.9v-12.46l4.99-.62.02 12.18Zm-5.1-27.81 5.01-.5v13.9l-5.02.56.03-13.96h-.01Zm-6.14.6 5-.5v14.07l-5 .54v-14.12Zm.1 16.32 5-.58v12.55l-5 .9v-12.88Zm-2.28 16.24.67-.14V243.6l-.88.09V278l.04-.01h.17v-.01Z" fill="#D7D7D7"/><path d="m75.68 242.11-.03 32.67 1.08-.22.02-32.56-1.07.11Z" fill="#606A77"/><path d="m61.24 243.6 14.44-1.49 1.07-.11 1.5-.15-.06-3.45-17.85 1.83v3.46h.02l.88-.1Zm6.5 1.33-5 .5v14.11l4.99-.54v-14.07h.01Zm-.4 13.7-4.17.46v-13.3l4.17-.4v13.24Zm6.54-14.3-5 .5-.03 13.96 5.01-.57v-13.89h.02Zm-.4 13.52-4.2.48.03-13.13 4.18-.41v13.06h-.02Zm-5.63 15.88v-12.55l-5.01.58v12.88l5-.9v-.01Zm-.41-12.1v11.73l-4.18.81v-12.05l4.18-.5v.01Zm1.54 11.91 5-.9-.01-12.18-4.97.62v12.46h-.02Zm4.58-1.27-4.18.82v-11.64l4.16-.53.02 11.35Z" fill="#606A77"/><path d="m74.59 288.18-.02.01h3-2.98Zm-.81.11v.1h.35v-.1h-.35Zm-.19.51a.18.18 0 0 1-.13-.05.16.16 0 0 1-.09-.14v-.33h-2.7v-2.1h-.42c-.17 0-.24-.17-.18-.3v-.1h-2.84v-2.21h-.3l-.05-.01c-.03 0-.04 0-.05-.02-.01 0-.02 0-.03-.03h-.01l-.03-.05a.2.2 0 0 1-.01-.15v-.06h-3.04v-2.29h-.09a.2.2 0 0 1-.13-.04l-.04-.04v-.02a.2.2 0 0 1-.02-.17h-3.17v-1.13 11.13l13.9.14v-2.05h-.54l-.03.02Zm3.13 2.05h-2.5l3.34.04v-.04h-.84Zm-6.5-7.71h-2.44 2.44Zm-9.99-5.1v.06s0-.04.02-.06h-.02Z" fill="#515252"/><path d="M60.23 280.7h3.17v-2.27l-.03-.05H60.4c-.1 0-.14-.06-.17-.13v2.45Zm3.57-2.3v2.17h.05l16.4-3.47v-2.22L63.8 278.4Z" fill="#515252"/><path d="m75.65 274.78-14.4 3.05-.68.14h3.02c.05 0 .1 0 .14.03l16.18-3.46h-3.18l-1.07.24h-.01Z" fill="#C3C4C2"/><path d="M66.73 280.98H63.7v2.3h3.04v-2.3Zm.41-.08v2.28h.08v-.04h.58-.57l16.47-3.49v-2.3l-16.56 3.55Z" fill="#515252"/><path d="M63.85 280.57h2.94l.05-.02 16.1-3.45h-2.7l-16.4 3.47h.01Z" fill="#C3C4C2"/><path d="M70.06 285.8v-2.15l-.04-.06h-2.8v2.21h2.84Zm.16-2.66h-3v.04h3.11c.01 0 .03 0 .04.02 0 0 .02 0 .03.02l.25-.06v-.04h-.45l.01.02Zm.25.49v2.14h.2v-2.2l-.2.06Zm.2-.05v2.2-.15h.83-.81l16.56-3.51v-2.08l-16.57 3.54Zm0-.44v.03l14.67-3.13-14.67 3.1Z" fill="#515252"/><path d="M67.23 283.13h.57l2.42.01h.45l14.66-3.1.35-.08 1.54-.32H83.8l-.1.01-16.47 3.48Z" fill="#C3C4C2"/><path d="M71.48 285.63h-.81v.14h2.93l.5-.1v-.05h-2.63Zm2.3 2.66h.34v-2.2l-.34.06v2.14Zm-.41-2.11h-2.7v2.1h2.7v-2.1Zm.76-.1v2.2-.09h.46-.46l16.56-3.5v-2.15l-16.56 3.54Zm0-.45v.04l16.56-3.54v-.01l-16.56 3.5Z" fill="#515252"/><path d="M70.68 285.63h3.44l16.56-3.51h-3.44l-16.56 3.5Z" fill="#C3C4C2"/><path d="m77.57 288.64-.44.1v2.11h.45v-2.21Zm-.85.16h-2.59v2.05h2.59v-2.05Zm.12-.41h.02l.71-.15v-.04h-3.44v.2h2.7v-.01Z" fill="#515252"/><path d="M77.57 288.64v2.21h.01l16.56-3.5v-2.25l-16.57 3.54Zm14.6-3.54-14.6 3.1v.03l14.6-3.13Z" fill="#515252"/><path d="M74.13 288.18h.46l2.98.01 14.6-3.09.18-.03 1.77-.38-3.42-.01-16.57 3.5Z" fill="#C3C4C2"/><path d="m92.17 285.1-14.59 3.13-.72.15H73.8v-2.23l.34-.08 16.56-3.54v-.41l-16.56 3.54-.5.11h-3.18v-2.14l.2-.05 16.58-3.54v-.42h-.02l-1.54.33-.35.07-14.66 3.14-.25.06-.03-.02-.04-.02h-3.19v-2.28l16.56-3.54v-.26h-.76l-16.1 3.45s-.03 0-.05.02h-2.98v-2.17l16.42-3.52v-.33h-.34L63.73 278l-.14-.03h-3.18l-.04.02a.21.21 0 0 0-.11.04l-.02.06a.23.23 0 0 0 0 .16c.03.06.07.13.17.13h2.97l.03.05v2.27c-.02.06 0 .13.02.17v.02l.04.04a.2.2 0 0 0 .13.04h3.14v2.35l.01.15.03.03s.03.04.05.04l.03.02h3.16s.02.06.04.07v2.25c-.05.12 0 .28.18.28h3.13v2.43c0 .07.04.11.09.14a.2.2 0 0 0 .13.05h3.13v2.05h.4v-2.12l.45-.09 16.57-3.54v-.41h-.03l-1.77.38-.18.04h.01Z" fill="#8A605A"/><path d="M50.9 136.14v-31.06l-6.78.35.02 2.3.01.4.07 10.15.03 4.74 6.66 13.12Z" fill="#AFB0AF"/><path d="m50.9 136.14 5.13.51 1.48.15 10.33 1.02.34.04V106.8l-17.27-1.72v31.06Z" fill="#D7D7D7"/><path d="m49.59 202.44 6.25-.1c.42-.68.6-1.46.75-2.26.2-1.04 1.8-.6 1.59.44-.12.61-.27 1.22-.49 1.8l5.9-.09 2.27-3.2h-.01l-14.52.13-5.13.05v3.26l3.39-.04Zm48.58-3.88h-1.94l.02 3.28 12.94-.14h.05l2.28-3.2h-.1l-13.25.06Z" fill="#01132B"/><path d="M54.3 286.85v-12.6l-1.64.2v12.27c0 .25.14 1.3.21 1.31.41 1.4 1.31 2.59 2.17 3.79l.5.7v.03c.14-.45.46-.87.92-1a.93.93 0 0 1 .36-.04.2.2 0 0 1-.04-.07c-.95-1.36-2.36-2.93-2.48-4.57v-.03.01Zm-1.64-12.81 1.65-.2v-21.75c-.54.1-1.1.15-1.64.16v21.8-.01Zm.01-22.21c.56 0 1.1-.07 1.64-.17v-19.3c-.53.04-1.08.07-1.63.07v19.4h-.01Zm.01-19.8c.55 0 1.1-.03 1.64-.07v-18.84l-1.64.01v18.91Zm3.91-31.93c-.16.8-.33 1.57-.75 2.25-.1.16-.2.33-.34.48-.53.57-1.2 1-1.74 1.56a3.47 3.47 0 0 0-1.07 2.86v5.47l1.64-.02v-5.95c.09-1.22 1.73-2.06 2.48-2.92.4-.46.68-.97.89-1.5.22-.58.36-1.19.48-1.8.2-1.03-1.39-1.48-1.59-.44Z" fill="#8B939E"/><path d="M55.55 292.55c.6.84 2 .03 1.41-.85l-.12-.18a.97.97 0 0 0-.36.04c-.48.12-.78.55-.92 1l-.01-.01Z" fill="#3E4B59"/><path d="m52.66 274.45 1.65-.2v-.41l-1.65.2v.41Zm.01-22.2c.56 0 1.1-.07 1.64-.16v-.42a9.8 9.8 0 0 1-1.64.17v.4Zm.01-19.81c.55 0 1.1-.03 1.64-.07v-.4c-.54.03-1.1.06-1.64.06v.41Zm0-19.32 1.64-.02v-.4c-.54 0-1.1 0-1.64.02v.4Zm7.66 27.11h-1.19v3.46h1.2v-3.46Z" fill="#01132B"/><path d="M34.67 156.52h.04a15.55 15.55 0 0 0 9.37-10.32 13.05 13.05 0 0 0 .44-4.2 14.54 14.54 0 0 0-5.72-10.74 13.38 13.38 0 0 0-6.95-2.75 21.16 21.16 0 0 0 4.11-11.62 19.87 19.87 0 0 0-4.08-13.54 214.35 214.35 0 0 0-10.49 19.14l13.28 34.03Z" fill="#BAD4B4"/><path d="M303.03 205.5v1.04l.03 8.85.17 64.37v.49l8.48 1.82 18.76 4.04v-1.12l2.64-.38h.04v-40.47l.11.02 15.9 1.02h.83v2.1h-.83v40.83h.02v2.06l10.67 2.3.03-14.43v-1.64l.13-75.67-56.97 4.78-.01-.01Zm7.41 4.05 13.63-.95v26.86h-.06.06v2.1l-16.12-.88v-2.1l2.5.14v-25.16h-.01Zm39.25 29.81-14.54-.81-1.47-.09-2.44-.14v-2.09l2.44.14v-28.36l16.03-1.03v32.39h-.02Zm-31.51-37.49-3.16.29-1.6.16-10.4 1 15.16-1.45Z" fill="#E4E5E5"/><path d="M358.05 168.3a277.32 277.32 0 0 1-6.87 6.85l-18.24 25.3 15.54-1.5 11.56-16.02v-8.12h-.07l-4.26-3.27.31-.04-.34.04 2.38-3.24h-.01Zm-11.58 11.29a287.53 287.53 0 0 1-27.17 22.17l12.01-1.16 15.16-21.01Zm3.63 19.2 9.9-.95.03-12.8-9.93 13.75Z" fill="#8AB0C7"/><path d="m314.64 185.68-6.11 8.18-.62.82-5.83 7.8-.6.81-.15.2.23-.03.95-.1.5-.04 10.4-1 48.32-67-11.74 3.08-13.78 18.43-13.47 18.02-7.49 10.01-.61.82Zm36.54-10.53c2.33-2.24 4.61-4.52 6.86-6.84l15.2-20.78 6.63-9.07 7.77-10.62-1.53.44-1.43.4-33.5 46.46v.01Zm-36.16 27.01 3.16-.3 1.13-.11a289.95 289.95 0 0 0 27.17-22.17l36.3-50.34-19.14 5.51-48.61 67.4h-.01Z" fill="#B3CCDE"/><path d="m348.47 198.95 1.63-.16 9.93-13.76v-2.1l-11.56 16.02Zm-2-19.36L331.3 200.6l1.63-.16 18.24-25.29 33.5-46.45-1.9.55-36.31 50.34Zm17.16-44.83-1.9.55-48.32 67 1.6-.15 48.62-67.4Z" fill="#083D5B"/><path d="m346.87 257.35-3.81-.35v25.9l3.8.61v-26.16Z" fill="#B3CCDE"/><path d="m348.33 247.2-13.7-.87-.02 38.6 13.72 2.97v-40.69Zm-12.21.76 11.42.67-.08 6.15-11.39-1.02.04-5.79h.01Zm.04 34.24.02-26.21 4.62.43-.02 26.53-4.62-.75Zm6.5 1.06v-26.7l4.62.43v27.03l-4.62-.75Z" fill="#B3CCDE"/><path d="m336.5 253.38 10.55.93.07-5.3-10.6-.62-.03 4.99Zm10.01 35.07-8.19-1.76 8.21 1.77 1.8-.26-1.82.25Zm-6.13-31.67-3.8-.34-.02 25.4 3.8.61.02-25.67Zm7.95-9.58v40.69l.82.18v-40.82l-.82-.04Zm0 41 .82-.11v-.02l-.82.12Z" fill="#B3CCDE"/><path d="M333.14 244.13h.12-.12Zm1.46 40.8.03-38.6-1.5-.1v38.38l1.48.32Zm.03-38.61 13.7.89.82.04v-2.09l-15.9-1.02h-.11v2.09l1.5.1Z" fill="#606A77"/><path d="m349.15 288.09-.82.11-1.8.26-8.2-1.77-7.88-1.7v2.1l15.99 3.46 2.73-.37v-2.1l-.02.01Z" fill="#01132B"/><path d="m338.32 286.69 8.2 1.76 1.81-.26.82-.12h.01l-.83-.18-13.72-2.96-1.47-.32h-.04l-2.64.37h-.01v.01l7.87 1.7Z" fill="#01132B"/><path d="m347.54 248.62-11.42-.67-.04 5.8 11.39 1.01.07-6.15v.01Zm-.49 5.7-10.56-.95.03-4.98 10.6.62-.07 5.31Zm-6.25 2.08-4.63-.42-.02 26.21 4.62.75.02-26.53Zm-4.24 25.44.02-25.4 3.8.34-.01 25.67-3.81-.61Zm10.71-24.87-4.62-.42v26.7l4.63.74v-27.03.01Zm-4.21 25.93V257l3.8.35v26.15l-3.8-.61v.01Z" fill="#606A77"/><path d="M349.15 247.25h.83v-2.09h-.83v2.09Z" fill="#01132B"/><path d="m350.1 198.79-1.63.16-15.54 1.5-1.62.15-12 1.16-1.13.1-15.16 1.47-.51.04-.95.1-.22.02.55.65 1.13 1.36 56.98-4.78v-2.88l-9.9.95Z" fill="#3E4B59"/><path d="M335.16 228.83v7.61l6.26.36v-16.1a42.89 42.89 0 0 1-6.26 8.13Zm14.54-19.76-2.86.18a50.8 50.8 0 0 1-4.2 9.33v18.28l7.04.4v.02-28.21h.02Z" fill="#C0E7F3"/><path d="m342.66 218.58.55-.97a52.86 52.86 0 0 0 3.64-8.36l-4.18.27v9.06h-.01Zm-1.24-8.98-6.24.4v.15l-.03 18.68a42.89 42.89 0 0 0 6.26-8.13v-11.1h.01Z" fill="#FFF9F5"/><path d="m333.86 208.04 1.32.1v1.87l6.24-.4v-1.21l1.24.14v.98l4.18-.27 2.86-.18v-2.1l-16.01 1.04v2.1-2.1l.17.03Z" fill="#606A77"/><path d="M342.66 209.52v-.98l-1.24-.14v28.4l1.23.06v-27.34Zm-7.51 26.92.01-7.61.02-18.68v-2l-1.32-.1-.17-.03v2.1l-.01 26.24 1.47.08Z" fill="#606A77"/><path d="m342.65 236.86-1.24-.06-6.26-.36-1.47-.08-2.44-.14v2.1l2.44.14 1.47.08 14.54.83v-2.11l-7.04-.4Z" fill="#01132B"/><path d="m311.92 234.36.61.02 4.63.1v-6.65a44.25 44.25 0 0 1-4.68 4.08c-.15.13-.31-1.45-.48-1.34v-.77l-.04-18.27h-.02v.18l-.02 22.64v.01Zm6.46.15 4.87.11V220.4a50.48 50.48 0 0 1-3.67 4.86l-1.19 1.32v7.95-.01Z" fill="#C0E7F3"/><path d="M324.07 219.18c-.25.4-.54.8-.82 1.2v14.24l.49.02h.33v.83H324h.08v-24.48 8.2-.01Zm-13.62 15.13h-.01v.4h.01v-.4Zm6.7.17-4.62-.1-.61-.02v.44l5.23.29v-.6Z" fill="#B3CCDE"/><path d="M318.38 234.51v.64l5.61.3h.08v-.81h-.33l-.5-.02-4.86-.11Z" fill="#B3CCDE"/><path d="M312 229.81v.77c.17-.1.32 1.45.48 1.34a43.39 43.39 0 0 0 4.66-4.08v-7.01a44.74 44.74 0 0 1-5.14 9v-.02Zm8.7-18.88c-.64 2.37-1.4 4.7-2.32 6.98v8.65l1.19-1.31a47.65 47.65 0 0 0 3.67-4.87c.27-.4.56-.8.82-1.21v-8.48l-3.37.23Z" fill="#C0E7F3"/><path d="M318.38 217.91a61.63 61.63 0 0 0 2.31-6.98l-2.3.16v6.82Zm-6.38 11.9a44.1 44.1 0 0 0 5.14-9v-9.63l-5.18.36.04 18.27Z" fill="#FFF9F5"/><path d="m310.45 209.59.18.02 1.31.1v1.83h.02l5.19-.36v-1.34l.63.07.6.07v1.12l2.31-.17 3.38-.23v-2.1l-13.63.95v2.1h.01v-2.06Z" fill="#606A77"/><path d="M317.15 220.83v14.25l1.23.07v-25.17l-.6-.06-.63-.08v10.99Zm-5.23 13.97v-.44l.02-22.64v-2l-1.31-.11-.18-.02v25.12l1.47.09Z" fill="#606A77"/><path d="m318.38 235.15-1.24-.06-5.22-.3-1.47-.08h-.01l-2.5-.14v2.1l16.13.9v-2.1l-.07-.01h-.01l-5.6-.3ZM46.1 192.83l.1.14v.46h2.88l-3.05-7.81-11.36-29.1L21.4 122.5c-.47.98-.93 1.97-1.38 2.95l26.1 67.38Z" fill="#01132B"/><path d="m46.1 293.13.09-91.12v-9.04l-.1-.15L20 125.44a215.55 215.55 0 0 0-10.9 28.65l4.16.18h.13v26.2l2.11.02v4.33l-13.21-.1c-1.5 10.3-2.3 20.8-2.3 31.51 0 21.94 3.3 43.1 9.38 63.03l.04-30.74v-2.1l.18.02 9.4-1.05 1.24-.14 9.83-1.1v2.1l-.01 33.3 1.91-.36v4.32l-1.91.38v.1l-9.81 1.78L19 286h-.02L12 287.34c1.49 4.24 3.1 8.42 4.83 12.55l29.26-6.1v-.67.01ZM9.37 235.98v-4.33h.03v-25.54l20.55-.75h.12v2.09l-.02 22.17 2.1-.2v4.32L9.4 235.99v-.01Z" fill="#CECFCD"/><path d="m13.3 208.06-3.07.12v23.39l8.82-.87v-14.9a35.99 35.99 0 0 1-5.75-7.75v.01Zm9.66 11.08a26.05 26.05 0 0 1-2.68-2.16v13.6l7.68-.76v-7.9a26.5 26.5 0 0 1-5-2.77Z" fill="#C0E7F3"/><path d="M22.96 219.14a25.7 25.7 0 0 0 5 2.77v-14.4l-7.68.28v9.19c.85.76 1.73 1.48 2.68 2.15v.01Zm-3.91-11.29-5.75.21a36.14 36.14 0 0 0 5.75 7.75v-7.96Z" fill="#FFF9F5"/><path d="M10.23 231.57v-23.4l-.82.03v23.45l.82-.08Z" fill="#C0E7F3"/><path d="m30.06 205.34-.12.02.12-.01v-.01Zm-2.09 2.18v14.38l-.01 7.92 2.1-.21v-22.16l-2.09.07Z" fill="#7D7D7D"/><path d="m10.23 208.18 3.08-.12 5.74-.21v-1.39l1.23.13v1.21l7.7-.28 2.08-.07h.01v-2.1h-.13l-20.54.76v2.1l.83-.03Z" fill="#3E4B59"/><path d="M20.28 207.8v-1.2l-1.23-.14v24.24l1.23-.13V207.8Z" fill="#3E4B59"/><path d="M11.31 180.46v-1.62a32.08 32.08 0 0 1-6.74-6.95c-.24 1.15-.46 2.31-.69 3.48v5.04l7.43.05Z" fill="#C0E7F3"/><path d="M11.31 178.84v-22.56l-2.82-.12c-1.5 5.16-2.8 10.4-3.91 15.73 1.88 2.64 4.16 5 6.74 6.95Z" fill="#FFF9F5"/><path d="M3.88 175.38a202.9 202.9 0 0 0-.9 5.03h.9v-5.03Z" fill="#3E4B59"/><path d="M13.4 154.27h-.13.13Zm-2.1 2.02.01 22.55v1.62l2.1.01v-24.1l-2.1-.08Z" fill="#7D7D7D"/><path d="M13.4 156.37v-2.1h-.13l-4.17-.17c-.2.69-.42 1.38-.61 2.08l2.82.12 2.1.09v-.02Z" fill="#3E4B59"/><path d="M15.52 184.82v-4.33l-2.1-.02-2.1-.01-7.43-.05H3a167.7 167.7 0 0 0-.68 4.31l13.22.1h-.01Zm16.63 44.58-2.1.2-2.1.22-7.67.75-1.23.13-8.82.87-.82.08h-.03v4.33l22.77-2.25v-4.33Z" fill="#7D7D7D"/><path d="m19 247.48-8.76.96-.04 33.5.44 1.35 8.35-1.6v-34.21H19Zm8.97-.98-7.73.84-.01 34.1 7.7-1.46.04-33.49Z" fill="#C0E7F3"/><path d="m10.24 248.44-.82.09-.04 30.74.82 2.67.04-33.5Z" fill="#C0E7F3"/><path d="m19 286.02 1.23-.23 9.8-1.78v-.12l-11.06 2.13H19Z" fill="#F1C3AE"/><path d="m27.97 246.5-.04 33.48 2.12-.41.01-33.31-2.1.23Z" fill="#7D7D7D"/><path d="m10.24 248.44 8.76-.96v-2.08l1.24-.14v2.08l7.73-.85 2.1-.23v-2.1l-9.83 1.1-1.24.14-9.4 1.04-.18-.01v2.1l.82-.1Z" fill="#3E4B59"/><path d="M20.24 247.34v-2.08l-1.24.14v36.29l1.23-.24v-34.11Z" fill="#3E4B59"/><path d="m30.04 283.9 1.91-.38v-4.32l-1.91.36-2.13.4-7.7 1.48-1.23.23-8.35 1.6c.45 1.36.89 2.72 1.36 4.07l6.97-1.33 11.07-2.12Z" fill="#7D7D7D"/><path d="M360.05 174.82v8.12l-.02 2.1-.02 12.81v2.87l-.13 75.67v1.65l-.03 14.41v.02l9.45 2.13 7.31 1.65 34.74 7.83c1.9-4.25 3.66-8.58 5.28-12.97l-12.35-2.45V285l4.38.87.08-41.76v-1.47l19.53 1.01a217.05 217.05 0 0 0 1.26-41.7v23.06l-25.55-.56v-3.65l4.9.11v-41.87l1.9-.21h.05l15.62-1.72a211.3 211.3 0 0 0-2.43-11.45l-63.98 9.19v-.03Zm13.93 67.94v-2.1l20.6 1.18v41.23h-.12l.12.03v3.65l-25.03-5.01v-3.66l4.42.88.02-36.2h-.01Zm20.53-62.29.19-.01v43.8l-25.51-.37v-3.65l4.86.06v-35.5h.01v-2.1l1.9-.2h.05l16.62-1.84 1.9-.2h-.02Z" fill="#CECFCD"/><path d="m420.95 192.25-.84 1.93v26.47l8.58-.3V192.5c-.5-4.5-1.11-8.95-1.88-13.36l-.81.1c-1.37 4.46-3.26 8.81-5.06 13.02h.01Zm-9.98 16.84v11.28l7.91.25v-23.76c-2.12 4.4-4.62 8.62-7.91 12.23Zm-25.83 10.78 8.71.28v-37.5l-1.24.13-1.43.16a70.45 70.45 0 0 1-6.05 14.94v21.99h.01Zm-1.24-.04v-19.82a69.72 69.72 0 0 1-7.78 10.71v8.86l7.78.25Z" fill="#C0E7F3"/><path d="M376.12 210.72a71.02 71.02 0 0 0 7.78-10.71v-16.27l-7.77.85v26.13Zm9.02-12.84a70.45 70.45 0 0 0 6.05-14.94l-6.05.67v14.28-.01Zm35.81-5.63c1.8-4.2 3.7-8.56 5.06-13.02l-5.9.65v14.3c.3-.64.57-1.28.85-1.92v-.01Zm-2.07 4.61v-16.84l-7.9.87v28.2c3.28-3.6 5.8-7.82 7.9-12.22Z" fill="#F4F4F4"/><path d="m413.24 162.92 7.08-10.79a215.4 215.4 0 0 0-5.13-14.6l-18.27 27.84 16.31-2.45Zm9.74-1.46c-.69-2.61-1.42-5.22-2.2-7.8l-5.92 9.02 8.12-1.22Zm-43.26 6.49 15.56-2.33 19.35-29.46a206.13 206.13 0 0 0-4.4-10.2c-1.68 1.08-3.37 2.19-5.06 3.25l-25.45 38.74Zm-21.67.35-2.38 3.25.34-.04 22.08-3.32 24.63-37.51a507 507 0 0 1-29.49 16.84l-15.2 20.78h.02Z" fill="#255F82"/><path d="m428.86 220.36.26.59h.4v.42-19.44c-.2-3.16-.49-6.31-.83-9.44v27.86h.17v.01Z" fill="#C0C1C3"/><path d="m429.12 220.95-.26-.59h-.16l-8.6.3v.42l-1.22-.05v-.4l-7.91-.26-.01.57 18.56.4v.44-.82l-.4-.01Z" fill="#C3C1C0"/><path d="m410.77 178.8-1.89.2v.01l1.95-.21h-.06Zm.19 42.14.01-.57v-39.48l-1.26.13-.83.1v39.77l2.08.05Z" fill="#3E4B59"/><path d="M408.88 179.01v2.1l.82-.09 1.27-.14 7.9-.87v-1.46l1.24.14v1.18l5.89-.65.8-.1-.37-2.05-15.62 1.72-1.95.21.02.01Z" fill="#3E4B59"/><path d="M393.86 182.64v37.5l.5.03h.32v-37.61l-.82.08Z" fill="#C0C1C3"/><path d="m383.9 219.83-7.78-.25v.78l7.78.11v-.64Zm9.95.32-8.7-.28v.61l9.53.14v-.44l-.33-.01-.5-.02Z" fill="#C3C1C0"/><path d="m375.94 182.51-1.9.2v.01l1.95-.21h-.05Zm.18 37.85v-9.64l.01-26.13-1.26.14-.83.1v35.5l2.08.03Z" fill="#3E4B59"/><path d="M374.04 182.72v2.1l.83-.09 1.26-.14 7.77-.85v-1.48l1.24.14v1.2l6.05-.66 1.42-.16 1.25-.14.82-.08v-2.1l-.18.01-1.9.2-16.6 1.84-1.96.21Zm44.84 37.9v.41l1.23.05V178.7l-1.23-.14v42.06Z" fill="#3E4B59"/><path d="M383.9 200v20.47l1.24.01V182.4l-1.24-.14V200Z" fill="#3E4B59"/><path d="M410.24 125.95c-.41-.87-.81-1.75-1.23-2.62l-3.86 5.87c1.7-1.06 3.39-2.16 5.08-3.25Zm-30.36 12.51-6.64 9.07a512.28 512.28 0 0 0 29.5-16.84l5.66-8.63a212.37 212.37 0 0 0-6.94-13.1l-13.82 18.9-7.76 10.6Z" fill="#598AA9"/><path d="m414.85 162.68 5.92-9.02-.46-1.53-7.08 10.79 1.62-.24Zm-17.95 2.69 18.29-27.84-.56-1.37-19.35 29.46 1.63-.24v-.01Zm-18.8 2.83 1.62-.25 25.44-38.74 3.86-5.87-.62-1.28-5.67 8.62-24.63 37.51Z" fill="#01132B"/><path d="M420.12 260.98v19.96a214.7 214.7 0 0 0 7.86-35.22l-1.5-.08a87.46 87.46 0 0 1-6.36 15.35Zm-1.22 2.22a60.08 60.08 0 0 1-8.1 11.09v11.1l7.34 1.55.75-2.26V263.2Zm-35.02 17.05v-19.56a65.73 65.73 0 0 1-6.08 9.65l-1.75 2.3v6.03l7.82 1.57Zm1.23.25 8.63 1.74v-38.35l-3.05-.18a108.54 108.54 0 0 1-5.59 14.5v22.28l.01.01Z" fill="#C0E7F3"/><path d="m390.7 243.71-5.6-.32v14.83a109.7 109.7 0 0 0 5.6-14.5v-.01Zm-6.82 16.99v-17.38l-7.82-.45v29.78l1.74-2.3a67.15 67.15 0 0 0 6.08-9.65Zm42.6-15.06-6.36-.32v15.67a87.18 87.18 0 0 0 6.36-15.35Zm-15.68 28.65a60.08 60.08 0 0 0 8.1-11.1v-17.93c.19.04.4.07.6.07h.07c.1 0 .19-.02.28-.03l-9.03-.47-.02 29.46Z" fill="#F4F4F4"/><path d="M410.8 285.4v.88l7.08 1.4.25-.74-7.34-1.55Z" fill="#C3C1C0"/><path d="m410.78 286.29.01-.9.01-11.1.02-29.46-2.09-.1v-.63l-.08 41.76 2.13.43Z" fill="#3E4B59"/><path d="M408.73 244.1v.62l2.1.12 9.02.46c.1 0 .17 0 .27-.03v.04l6.36.32 1.5.08c.09-.7.2-1.39.28-2.08l-19.53-1.02v1.49Z" fill="#3E4B59"/><path d="M393.74 243.89v38.35h.83v.83-39.14l-.83-.04Z" fill="#C0C1C3"/><path d="M383.88 280.95v-.7l-7.82-1.57v.7l7.82 1.57Zm10.19 1.29h-.33l-8.63-1.74v.7l9.34 1.87h.12v-.82l-.5-.01Z" fill="#C3C1C0"/><path d="m373.96 278.96 2.1.42v-36.5l-2.08-.12-.02 36.2Z" fill="#3E4B59"/><path d="m376.06 242.88 7.82.45v-.56c.18 0 .38-.04.56-.08.23 0 .44 0 .66.02v.68l5.6.32 3.04.18.82.04v-2.1l-20.6-1.17v2.1l2.08.11.02.01Zm44.06 18.1v-15.7l-.27.02c-.1 0-.19.03-.28.03h-.06a2.5 2.5 0 0 1-.62-.07v39.42c.42-1.25.84-2.49 1.24-3.74v-19.96h-.01Z" fill="#3E4B59"/><path d="M383.88 280.25v.7l1.23.25v-38.5c-.22-.02-.43-.03-.66-.02-.2.04-.38.07-.56.08v37.49l-.01-.01Z" fill="#3E4B59"/><path d="m413.24 162.92-16.32 2.45-1.63.24-15.56 2.33-1.63.25-22.08 3.3-.31.05 4.26 3.28h.07l63.99-9.2c-.34-1.39-.68-2.78-1.04-4.17l-8.12 1.22-1.63.24v.01Z" fill="#01132B"/><path d="m429.52 221.35-18.56-.41-2.09-.05-4.9-.11v3.66l25.55.56v-3.65Zm-44.38-.87h-1.23l-7.79-.12-2.09-.03-4.86-.07v3.65l25.5.37v-3.66l-9.53-.14Zm23.51 65.38-4.38-.87v3.66l12.36 2.45c.41-1.13.85-2.26 1.25-3.4l-7.1-1.4-2.13-.43v-.01Zm-23.54-4.66-1.23-.25-7.82-1.57-2.1-.42-4.42-.89v3.67l25.03 5.01v-3.66l-.12-.02-9.34-1.87Z" fill="#3E4B59"/><path d="M252.78 273.2v-.64c0-.22.11-.4.28-.5l-11.73-2.84-4.48.14 15.93 3.86v-.01Zm65.78 14.69-64.62-15.63c.05.1.09.18.09.3v.94l33.53 8.12v-.41a.6.6 0 0 1 .62-.62.6.6 0 0 1 .61.62v.7l31.75 7.68 3.33.8v-.43a.6.6 0 0 1 .61-.61.6.6 0 0 1 .62.61v.74l34.97 8.45v-.44a.6.6 0 0 1 .62-.61.6.6 0 0 1 .6.61v.74l37.94 9.17a.6.6 0 0 1 .6-.56.6.6 0 0 1 .62.62v.24l7.74 1.87.52-1.1-90.17-21.8h.02Zm-233.48 9.18a.6.6 0 0 0-.6-.62.6.6 0 0 0-.62.62v6.32l1.23-.35v-5.97Z" fill="#515252"/><path d="M121.1 292.68v-5.3a.6.6 0 0 0-.62-.61.6.6 0 0 0-.61.61v5.65l1.23-.36Zm36.4-10.48v-5.23a.6.6 0 0 0-.6-.6h-.01a.6.6 0 0 0-.3.1c-.2.1-.32.28-.32.51v5.57l1.24-.35h-.01Z" fill="#3E4B59"/><path d="M45.93 307.96a.6.6 0 0 0-.62-.61.62.62 0 0 0-.62.61v6.72l1.24-.36v-6.36Zm315.37-3.01v-6.24a.6.6 0 0 0-.6-.61.6.6 0 0 0-.62.61v5.93l1.24.31h-.01Z" fill="#515252"/><path d="m323.87 295.48 1.24.3v-5.82a.6.6 0 0 0-.62-.61.6.6 0 0 0-.61.61v5.5l-.01.02Zm-35.08-8.9v-5.37a.6.6 0 0 0-.61-.62.6.6 0 0 0-.62.62v5.06l1.24.31h-.01Zm-35.39-14.64a.58.58 0 0 0-.33.11.6.6 0 0 0-.28.5v4.9l1.24.32v-5.21c0-.12-.04-.2-.09-.3a.6.6 0 0 0-.53-.32Z" fill="#3E4B59"/><path d="m399.23 314.57 1.24.31v-6.2a.6.6 0 0 0-.62-.62.6.6 0 0 0-.6.56l-.01.06v5.9h-.01Z" fill="#515252"/><path d="M213.15 276.21v58.94h3.7v-58.94h-3.7Z" fill="#D7D7D7"/><path opacity=".49" d="M209.23.97a37.5 37.5 0 0 0-1.72 7.25c-.02.2 0 .87-.12 1.02-.17.23-.6.13-.86.14-.8 0-1.62.03-2.43.06a25 25 0 0 0-4.47.59c-2.5.6-4.82 1.77-6.4 3.84-1.38 1.8-2.2 4.22-1.63 6.48.18.73.47 1.36.84 1.9 2.09-1.07 4.3-1.9 6.58-2.44 2.59-.63 5.15-.6 7.77-.93 2.86-.38 5.02-2.33 7.3-3.94a100.1 100.1 0 0 1 24.78-12.72A217.46 217.46 0 0 0 209.22.97h.01Z" fill="#C0E7F3"/><path opacity=".49" d="M214.1 14.94c-2.28 1.6-4.44 3.56-7.3 3.94-2.62.33-5.18.3-7.78.93a29.6 29.6 0 0 0-6.57 2.44c2.16 3.15 7.13 3.26 10.65 2.75 6.28-.9 12.5-2.72 18.4-5.11 8.98.22 18.01-2.07 26.79-3.82 6.12-1.23 12.3-2.2 18.55-2.1 6.16.09 12.3 1.08 18.17 2.92 6.03 1.9 11.4 4.88 16.92 7.88a54.97 54.97 0 0 0 7.62 3.56 34.2 34.2 0 0 0 5.07 1.37c2.37-.2 4.74-.35 7.11-.44a213.48 213.48 0 0 0-82.85-27.04 100.1 100.1 0 0 0-24.78 12.71v.01Z" fill="#C0E7F3"/><path opacity=".49" d="M214.1 14.94c-2.28 1.6-4.44 3.56-7.3 3.94-2.62.33-5.18.3-7.78.93a29.6 29.6 0 0 0-6.57 2.44c2.16 3.15 7.13 3.26 10.65 2.75 6.28-.9 12.5-2.72 18.4-5.11 8.98.22 18.01-2.07 26.79-3.82 6.12-1.23 12.3-2.2 18.55-2.1 6.16.09 12.3 1.08 18.17 2.92 6.03 1.9 11.4 4.88 16.92 7.88a54.97 54.97 0 0 0 7.62 3.56 34.2 34.2 0 0 0 5.07 1.37c2.37-.2 4.74-.35 7.11-.44a213.48 213.48 0 0 0-82.85-27.04 100.1 100.1 0 0 0-24.78 12.71v.01Z" fill="#C0E7F3"/><path opacity=".49" d="M318.5 30.3c1.83.2 3.68.29 5.53.3l-2.3-1.34c-2.38.08-4.75.24-7.12.44 1.28.25 2.57.46 3.87.6h.01Z" fill="#C0E7F3"/><path opacity=".49" d="M318.5 30.3c1.83.2 3.68.29 5.53.3l-2.3-1.34c-2.38.08-4.75.24-7.12.44 1.28.25 2.57.46 3.87.6h.01Z" fill="#C0E7F3"/><path opacity=".49" d="M318.5 30.3c1.83.2 3.68.29 5.53.3l-2.3-1.34c-2.38.08-4.75.24-7.12.44 1.28.25 2.57.46 3.87.6h.01Z" fill="#C0E7F3"/></g><path fill-rule="evenodd" clip-rule="evenodd" d="M235.24 109.24c-7.86 0-13.5 4.23-16.22 9.65-2.71-5.42-8.36-9.65-16.22-9.65-10.92 0-19.81 9.41-19.81 20.98 0 12.63 8.94 21.86 13.74 26.82l1.19 1.24c4.19 4.43 19.26 18.55 19.9 19.15a1.74 1.74 0 0 0 2.39 0c.7-.68 17.26-16.37 19.9-19.15l.44-.48c3.58-3.75 14.49-15.15 14.49-27.58 0-11.57-8.89-20.98-19.82-20.98" fill="#CC2427"/><path opacity=".71" d="M336.85 282.37H100.66s10.12-36.28 31.24-59.34a8.16 8.16 0 0 1 6.09-2.61h161.56c2.28 0 4.52.92 6.08 2.61 21.08 23.06 31.22 59.34 31.22 59.34Z" fill="#9FDBEF"/><path d="M306.33 249.57H131.2a14 14 0 0 0-13.2 9.33l-7.08 20H326.6l-7.08-20a14 14 0 0 0-13.19-9.33Z" fill="#10253F"/><path d="M198.13 294.85h-70.96l3.31-29.75a22.67 22.67 0 0 1 22.53-20.18h19.28a22.67 22.67 0 0 1 22.52 20.18l3.31 29.75Zm112.24 0H239.4l3.31-29.75a22.67 22.67 0 0 1 22.53-20.18h19.28a22.67 22.67 0 0 1 22.52 20.18l3.32 29.75Z" fill="#0E1D2B"/><path d="M173.56 260.18h-21.83c-6.67 0-12.72 6.05-13.6 14.01l-2.07 19.1h53.18l-2.09-19.1c-.86-7.96-6.92-14-13.6-14Z" fill="#008140"/><path d="M166.66 253.6h-9.56c0 1.8-.13 3.2-.3 4.33-.42 2.52.5 5.07 2.3 6.45a4.47 4.47 0 0 0 5.55 0c1.81-1.38 2.72-3.92 2.31-6.45a28.6 28.6 0 0 1-.3-4.32Z" fill="#782B21"/><path d="M152.22 243.6c1.79 5.96 6.54 13.1 16.13 13.77 4.08.28 6.84-1.2 6.98-7.38.06-2.43 3.29-1.38 2.12-4.1-1.41-3.3-1.92-3.46-1.95-6.93-.03-5.4-3.26-12.46-14.36-9.67-11.1 2.8-10.05 10.6-8.93 14.33v-.01Z" fill="#AA5340"/><path d="M170.4 228.93a5.8 5.8 0 0 1 4.09 6.58c-.47 2.59-1.75 5.53-4.96 7.22-6.66 3.51-8.53 7.25-8.53 12.28 0 5.03-3.5 11.81-14.94 11.58-11.44-.23-8.87-6.31-6.54-9.35 2.33-3.05 6.57-2.15 6.42-9.2-.15-7.05 4.44-5.52 4.44-10.61 0-4.36 3.8-13.38 20.03-8.5Z" fill="#3D2626"/><path d="M288.18 256.75H261.6c-8.12 0-15.5 6.62-16.56 15.34l-2.53 20.9h64.75l-2.53-20.9c-1.06-8.72-8.44-15.34-16.55-15.34Z" fill="#083D5B"/><path d="M281.05 252.73h-11.6c0 1.82-.15 3.26-.38 4.4a6.29 6.29 0 1 0 12.36 0 22.93 22.93 0 0 1-.37-4.4Z" fill="#F2BF8F"/><path d="M263.43 236.1s.33 20.33 11.82 20.33 11.82-20.34 11.82-20.34-.44-9.3-11.82-9.06c-11.38.23-11.82 9.06-11.82 9.06Z" fill="#FBD3AE"/><path d="M265.26 239.07s-2.74-2.12-4.82-.37c-2.1 1.74.14 8.16 4.82 8.36v-7.99Zm19.88 0s2.74-2.12 4.83-.37c2.1 1.74-.15 8.16-4.82 8.36v-7.99Z" fill="#FBD3AE"/><path d="M271.47 240.03c0 1-.68 1.8-1.52 1.8-.83 0-1.5-.8-1.5-1.8 0-.99.67-1.79 1.5-1.79.84 0 1.52.8 1.52 1.8Z" fill="#2B2E4E"/><path d="M173.8 244.32c0 1-.67 1.8-1.5 1.8-.84 0-1.52-.8-1.52-1.8s.68-1.8 1.51-1.8c.84 0 1.52.8 1.52 1.8Z" fill="#331E1D"/><path d="M282.75 240.03c0 1-.68 1.8-1.51 1.8-.84 0-1.51-.8-1.51-1.8 0-.99.67-1.79 1.5-1.79.84 0 1.52.8 1.52 1.8Z" fill="#2B2E4E"/><path d="M275.23 245.7c-1.52 0-2.25-.69-2.58-1.26-1.16-2.01.73-5.47 1.12-6.14a1.01 1.01 0 1 1 1.75 1.02c-.74 1.26-1.53 3.4-1.13 4.11.13.22.48.27.85.27a1 1 0 0 1 1.01 1c0 .57-.37 1.06-1.03 1.02l.01-.01Zm.04 4.88a4.83 4.83 0 0 1-3.36-1.35c-.39-.4-.37-1.05.03-1.44a1 1 0 0 1 1.42.02c.18.18 1.79 1.66 4.14-.1a1.02 1.02 0 0 1 1.4.2 1 1 0 0 1-.2 1.42 5.72 5.72 0 0 1-3.43 1.25Z" fill="#E8AF7B"/><path d="M264.14 240.03s-5.15-5.33 0-10.5c0 0-1.57-7.8 10.75-6.06 7.08 1 7.87-1.45 9.75 0 2.76 2.12.5 4.28.5 4.28s6.83 4.5.51 11.48c0 0-2.07-1.94-2.23-6.04-.05-1.16-1.09-2.02-2.2-1.74a27.36 27.36 0 0 1-12.4.31 1.84 1.84 0 0 0-2.27 1.7 11.25 11.25 0 0 1-2.4 6.58Zm36.2 42.03h-5.38a19.4 19.4 0 0 0-19.36-19.38 19.4 19.4 0 0 0-19.35 19.38h-5.4a24.79 24.79 0 0 1 24.75-24.78 24.79 24.79 0 0 1 24.74 24.78Z" fill="#141414"/><path d="M250.07 277.17s0-6.97 6.06-12.92c6.05-5.95 7.53-4.6 7.3-3.37-.24 1.24-4.72 5.4-4.72 5.4s4 4.78 2.36 8.31c-2.25 4.84-9.99 5.51-11 2.59v-.01Z" fill="#FBD3AE"/><path d="M218.51 243.05c.1 0 .17.02.26.03.1 0 .17-.03.26-.03h-.51Z" fill="#F9EDE5"/><path d="M239.22 292.72s-2.91-23.26-9.65-29.84c0 0 4.07-19.36-10.8-19.81-14.87.45-10.8 19.81-10.8 19.81-6.73 6.58-9.65 29.84-9.65 29.84h40.91Z" fill="#F9EDE5"/><path d="M209.11 248.9s-6.31-3.38-8.79 4.5c-2.47 7.86 1.24 10.1 2.7 9.77 3.17-.74 2.58-11.92 3.7-11.92 1.13 0 2.4.56 2.4.56v-2.91Zm19.01 0s6.32-3.38 8.79 4.5c2.47 7.86-1.24 10.1-2.7 9.77-3.16-.74-2.58-11.92-3.7-11.92s-2.39.56-2.39.56v-2.91Z" fill="#F9EDE5"/><path d="M218.51 252.16s-2.25-.4-2.2 1.46c.06 1.85 2.2 1.62 2.2 1.62s2.14.23 2.2-1.62c.05-1.86-2.2-1.46-2.2-1.46Z" fill="#82483D"/><path d="M224.53 251.02c.54 0 .98-.52.98-1.16 0-.64-.44-1.16-.98-1.16s-.99.52-.99 1.16c0 .64.45 1.16.99 1.16Zm-12 0c.54 0 .98-.52.98-1.16 0-.64-.44-1.16-.98-1.16s-.99.52-.99 1.16c0 .64.45 1.16.99 1.16Z" fill="#2B2E4E"/><path d="M218.51 257.64s-.79.93-2 1.15c0 0-.06 3.96 2 4.06 2.06-.09 2-4.06 2-4.06-1.21-.23-2-1.15-2-1.15Z" fill="#D15B46"/><path d="M302.1 277.17s0-6.97-6.06-12.92c-6.05-5.95-7.53-4.6-7.3-3.37.24 1.24 4.72 5.4 4.72 5.4s-4 4.78-2.36 8.31c2.25 4.84 9.99 5.51 11 2.59v-.01Z" fill="#FBD3AE"/><path d="M234.1 228.66h-30.67c-.72 0-1.3.58-1.3 1.3v8.25c0 .72.59 1.3 1.3 1.3h30.67c.72 0 1.3-.58 1.3-1.3v-8.26c0-.71-.58-1.3-1.3-1.3Z" fill="#2B2E4E"/><path d="M220.1 218.7h-2.69v18.82h2.7V218.7Z" fill="#2B2E4E"/><path d="m333.8 279.66 3.52-9.86a16.2 16.2 0 0 1 15.24-10.75h16.55a8.06 8.06 0 0 1 7.05 11.96 10.61 10.61 0 0 1-9.3 5.5h-18.74a8.72 8.72 0 0 0-7.64 4.53l-2.4 4.39-4.28-5.76Zm-230.07 0-3.52-9.86a16.2 16.2 0 0 0-15.24-10.75H68.42A8.06 8.06 0 0 0 61.37 271c1.87 3.4 5.44 5.5 9.3 5.5h18.74a8.72 8.72 0 0 1 7.65 4.53l2.4 4.39 4.27-5.76Z" fill="#10253F"/><path d="M295.12 213.1h-152.7a7.95 7.95 0 0 0-7.94 7.95h168.57a7.95 7.95 0 0 0-7.94-7.95Z" fill="#CC2427"/><path d="M80.03 378.17h41.28v59.71c0 1.15-.93 2.07-2.07 2.07H82.1a2.06 2.06 0 0 1-2.06-2.07v-59.7Zm236.2 0h41.27v59.71c0 1.15-.93 2.07-2.06 2.07h-37.15a2.06 2.06 0 0 1-2.06-2.07v-59.7Z" fill="#141414"/><path d="M340.41 285.08H97.12l.96-3.43c.42-1.5 10.55-37.19 31.83-60.45a10.91 10.91 0 0 1 8.07-3.48h161.58c3.1 0 6.04 1.26 8.07 3.48 21.27 23.27 31.4 58.95 31.82 60.45l.96 3.43Zm-236.1-5.4h228.9c-3.08-9.49-12.88-36.61-29.55-54.84-1-1.1-2.5-1.74-4.1-1.74H137.98c-1.6 0-3.1.64-4.1 1.74-16.69 18.25-26.49 45.35-29.55 54.84h-.01Z" fill="#10253F"/><path d="M333.4 278.6H104.13c-3.79 0-7.25 1.97-9.09 5.1-35.64 60.51-20.27 99.01-20.27 99.01h288s15.37-38.5-20.27-99.01a10.53 10.53 0 0 0-9.1-5.1h.02Z" fill="#CC2427"/><path d="M96.21 327.28c4.1-7.87 18.2 0 28.13 7.05 10.22 7.25 16.79 16.88 12.68 24.75-4.1 7.87-16.68 10.03-27.53 3.75-14.54-8.41-17.38-27.68-13.28-35.55Zm245.11 0c-4.1-7.87-18.2 0-28.13 7.05-10.22 7.25-16.78 16.88-12.68 24.75 4.1 7.87 16.68 10.03 27.53 3.75 14.54-8.41 17.39-27.68 13.28-35.55Z" fill="#fff"/><path d="M261.53 335.9H176a8.7 8.7 0 0 0-8.7 8.71 22.17 22.17 0 0 0 22.16 22.19h58.6a22.17 22.17 0 0 0 22.16-22.19c0-4.8-3.9-8.7-8.7-8.7h.02Zm106.19 38.38H69.82a2.9 2.9 0 0 0-2.9 2.9v21.22a2.9 2.9 0 0 0 2.9 2.89h297.9a2.9 2.9 0 0 0 2.88-2.9v-21.21a2.9 2.9 0 0 0-2.88-2.9Z" fill="#10253F"/><path d="M251.08 378.64h-64.63c-.82 0-1.49.66-1.49 1.49v15.83c0 .82.67 1.49 1.49 1.49h64.63a1.5 1.5 0 0 0 1.49-1.5v-15.82c0-.83-.67-1.5-1.49-1.5Z" fill="#fff"/><path d="m284.52 328.42-131.68-.05c-43.19-11.92-46.87-48-46.9-48.36-.07-.75.48-1.4 1.21-1.46.72-.06 1.4.48 1.46 1.21.03.35 3.6 34.52 44.76 45.96h130.78c41.23-11.47 44.73-45.61 44.75-45.96.07-.74.76-1.28 1.46-1.22.75.06 1.3.72 1.23 1.46-.03.36-3.72 36.45-46.9 48.36l-.18.05Z" fill="#E05752"/><path d="M173.54 252.47a3.01 3.01 0 0 1-2.77-1.53 1.01 1.01 0 0 1 1.81-.9c.07.1.41.56 1.44.37a.98.98 0 0 1 1.18.8 1 1 0 0 1-.8 1.18c-.3.05-.6.08-.85.08h-.01Z" fill="#FFFFFE"/></g><defs><clipPath id="a"><path fill="#fff" transform="translate(0 .9)" d="M0 0h430v439.06H0z"/></clipPath></defs></svg>